<svg width="371" height="216" viewBox="0 0 371 216" fill="none" xmlns="http://www.w3.org/2000/svg">
<rect width="371" height="216" rx="16" fill="white"/>
<rect x="0.25" y="0.25" width="370.5" height="215.5" rx="15.75" stroke="black" stroke-opacity="0.1" stroke-width="0.5"/>
<path d="M109.835 32L112.779 20.8H116.459L119.403 32H117.227L116.619 29.536H112.619L112.011 32H109.835ZM113.115 27.584H116.123L114.763 22.128H114.475L113.115 27.584ZM120.743 32V20.8H125.352C126.056 20.8 126.674 20.944 127.208 21.232C127.752 21.5093 128.173 21.904 128.472 22.416C128.781 22.928 128.936 23.536 128.936 24.24V24.464C128.936 25.1573 128.776 25.7653 128.456 26.288C128.146 26.8 127.72 27.2 127.176 27.488C126.642 27.7653 126.034 27.904 125.352 27.904H122.856V32H120.743ZM122.856 25.984H125.144C125.645 25.984 126.05 25.8453 126.36 25.568C126.669 25.2907 126.824 24.912 126.824 24.432V24.272C126.824 23.792 126.669 23.4133 126.36 23.136C126.05 22.8587 125.645 22.72 125.144 22.72H122.856V25.984ZM130.4 32V20.8H132.512V32H130.4ZM141.769 32.128C141.15 32.128 140.606 31.9893 140.137 31.712C139.678 31.424 139.321 31.0293 139.065 30.528C138.809 30.0267 138.681 29.4507 138.681 28.8V24.064H140.697V28.64C140.697 29.2373 140.841 29.6853 141.129 29.984C141.428 30.2827 141.849 30.432 142.393 30.432C143.012 30.432 143.492 30.2293 143.833 29.824C144.174 29.408 144.345 28.832 144.345 28.096V24.064H146.361V32H144.377V30.96H144.089C143.961 31.2267 143.721 31.488 143.369 31.744C143.017 32 142.484 32.128 141.769 32.128ZM151.9 32.224C150.866 32.224 150.018 32 149.356 31.552C148.695 31.104 148.295 30.464 148.156 29.632L150.012 29.152C150.087 29.5253 150.21 29.8187 150.38 30.032C150.562 30.2453 150.78 30.4 151.036 30.496C151.303 30.5813 151.591 30.624 151.9 30.624C152.37 30.624 152.716 30.544 152.94 30.384C153.164 30.2133 153.276 30.0053 153.276 29.76C153.276 29.5147 153.17 29.328 152.956 29.2C152.743 29.0613 152.402 28.9493 151.932 28.864L151.484 28.784C150.93 28.6773 150.423 28.5333 149.964 28.352C149.506 28.16 149.138 27.8987 148.86 27.568C148.583 27.2373 148.444 26.8107 148.444 26.288C148.444 25.4987 148.732 24.896 149.308 24.48C149.884 24.0533 150.642 23.84 151.58 23.84C152.466 23.84 153.202 24.0373 153.788 24.432C154.375 24.8267 154.759 25.344 154.94 25.984L153.068 26.56C152.983 26.1547 152.807 25.8667 152.54 25.696C152.284 25.5253 151.964 25.44 151.58 25.44C151.196 25.44 150.903 25.5093 150.7 25.648C150.498 25.776 150.396 25.9573 150.396 26.192C150.396 26.448 150.503 26.64 150.716 26.768C150.93 26.8853 151.218 26.976 151.58 27.04L152.028 27.12C152.626 27.2267 153.164 27.3707 153.644 27.552C154.135 27.7227 154.519 27.9733 154.796 28.304C155.084 28.624 155.228 29.0613 155.228 29.616C155.228 30.448 154.924 31.0933 154.316 31.552C153.719 32 152.914 32.224 151.9 32.224ZM159.397 32.224C158.831 32.224 158.325 32.128 157.877 31.936C157.429 31.7333 157.071 31.4453 156.805 31.072C156.549 30.688 156.421 30.224 156.421 29.68C156.421 29.136 156.549 28.6827 156.805 28.32C157.071 27.9467 157.434 27.6693 157.893 27.488C158.362 27.296 158.895 27.2 159.493 27.2H161.669V26.752C161.669 26.3787 161.551 26.0747 161.317 25.84C161.082 25.5947 160.709 25.472 160.197 25.472C159.695 25.472 159.322 25.5893 159.077 25.824C158.831 26.048 158.671 26.3413 158.597 26.704L156.741 26.08C156.869 25.6747 157.071 25.3067 157.349 24.976C157.637 24.6347 158.015 24.3627 158.485 24.16C158.965 23.9467 159.546 23.84 160.229 23.84C161.274 23.84 162.101 24.1013 162.709 24.624C163.317 25.1467 163.621 25.904 163.621 26.896V29.856C163.621 30.176 163.77 30.336 164.069 30.336H164.709V32H163.365C162.97 32 162.645 31.904 162.389 31.712C162.133 31.52 162.005 31.264 162.005 30.944V30.928H161.701C161.658 31.056 161.562 31.2267 161.413 31.44C161.263 31.6427 161.029 31.824 160.709 31.984C160.389 32.144 159.951 32.224 159.397 32.224ZM159.749 30.592C160.314 30.592 160.773 30.4373 161.125 30.128C161.487 29.808 161.669 29.3867 161.669 28.864V28.704H159.637C159.263 28.704 158.97 28.784 158.757 28.944C158.543 29.104 158.437 29.328 158.437 29.616C158.437 29.904 158.549 30.1387 158.773 30.32C158.997 30.5013 159.322 30.592 159.749 30.592ZM165.642 28.064V27.808C165.642 26.976 165.808 26.2667 166.138 25.68C166.469 25.0827 166.906 24.6293 167.45 24.32C168.005 24 168.608 23.84 169.258 23.84C169.984 23.84 170.533 23.968 170.906 24.224C171.28 24.48 171.552 24.7467 171.722 25.024H172.01V24.064H173.994V33.408C173.994 33.952 173.834 34.384 173.514 34.704C173.194 35.0347 172.768 35.2 172.234 35.2H166.922V33.44H171.53C171.829 33.44 171.978 33.28 171.978 32.96V30.896H171.69C171.584 31.0667 171.434 31.2427 171.242 31.424C171.05 31.5947 170.794 31.7387 170.474 31.856C170.154 31.9733 169.749 32.032 169.258 32.032C168.608 32.032 168.005 31.8773 167.45 31.568C166.906 31.248 166.469 30.7947 166.138 30.208C165.808 29.6107 165.642 28.896 165.642 28.064ZM169.834 30.272C170.453 30.272 170.97 30.0747 171.386 29.68C171.802 29.2853 172.01 28.7307 172.01 28.016V27.856C172.01 27.1307 171.802 26.576 171.386 26.192C170.981 25.7973 170.464 25.6 169.834 25.6C169.216 25.6 168.698 25.7973 168.282 26.192C167.866 26.576 167.658 27.1307 167.658 27.856V28.016C167.658 28.7307 167.866 29.2853 168.282 29.68C168.698 30.0747 169.216 30.272 169.834 30.272ZM179.845 32.224C179.056 32.224 178.357 32.0587 177.749 31.728C177.152 31.3867 176.683 30.912 176.341 30.304C176.011 29.6853 175.845 28.96 175.845 28.128V27.936C175.845 27.104 176.011 26.384 176.341 25.776C176.672 25.1573 177.136 24.6827 177.733 24.352C178.331 24.0107 179.024 23.84 179.813 23.84C180.592 23.84 181.269 24.016 181.845 24.368C182.421 24.7093 182.869 25.1893 183.189 25.808C183.509 26.416 183.669 27.1253 183.669 27.936V28.624H177.893C177.915 29.168 178.117 29.6107 178.501 29.952C178.885 30.2933 179.355 30.464 179.909 30.464C180.475 30.464 180.891 30.3413 181.157 30.096C181.424 29.8507 181.627 29.5787 181.765 29.28L183.413 30.144C183.264 30.4213 183.045 30.7253 182.757 31.056C182.48 31.376 182.107 31.6533 181.637 31.888C181.168 32.112 180.571 32.224 179.845 32.224ZM177.909 27.12H181.621C181.579 26.6613 181.392 26.2933 181.061 26.016C180.741 25.7387 180.32 25.6 179.797 25.6C179.253 25.6 178.821 25.7387 178.501 26.016C178.181 26.2933 177.984 26.6613 177.909 27.12ZM193.142 32.224C192.353 32.224 191.654 32.0587 191.046 31.728C190.449 31.3867 189.98 30.912 189.638 30.304C189.308 29.6853 189.142 28.96 189.142 28.128V27.936C189.142 27.104 189.308 26.384 189.638 25.776C189.969 25.1573 190.433 24.6827 191.03 24.352C191.628 24.0107 192.321 23.84 193.11 23.84C193.889 23.84 194.566 24.016 195.142 24.368C195.718 24.7093 196.166 25.1893 196.486 25.808C196.806 26.416 196.966 27.1253 196.966 27.936V28.624H191.19C191.212 29.168 191.414 29.6107 191.798 29.952C192.182 30.2933 192.652 30.464 193.206 30.464C193.772 30.464 194.188 30.3413 194.454 30.096C194.721 29.8507 194.924 29.5787 195.062 29.28L196.71 30.144C196.561 30.4213 196.342 30.7253 196.054 31.056C195.777 31.376 195.404 31.6533 194.934 31.888C194.465 32.112 193.868 32.224 193.142 32.224ZM191.206 27.12H194.918C194.876 26.6613 194.689 26.2933 194.358 26.016C194.038 25.7387 193.617 25.6 193.094 25.6C192.55 25.6 192.118 25.7387 191.798 26.016C191.478 26.2933 191.281 26.6613 191.206 27.12ZM197.541 32L200.421 28L197.573 24.064H199.909L201.717 26.704H202.005L203.813 24.064H206.149L203.301 28L206.181 32H203.813L202.005 29.328H201.717L199.909 32H197.541ZM210.053 32.224C209.487 32.224 208.981 32.128 208.533 31.936C208.085 31.7333 207.727 31.4453 207.461 31.072C207.205 30.688 207.077 30.224 207.077 29.68C207.077 29.136 207.205 28.6827 207.461 28.32C207.727 27.9467 208.09 27.6693 208.549 27.488C209.018 27.296 209.551 27.2 210.149 27.2H212.325V26.752C212.325 26.3787 212.207 26.0747 211.973 25.84C211.738 25.5947 211.365 25.472 210.853 25.472C210.351 25.472 209.978 25.5893 209.733 25.824C209.487 26.048 209.327 26.3413 209.253 26.704L207.397 26.08C207.525 25.6747 207.727 25.3067 208.005 24.976C208.293 24.6347 208.671 24.3627 209.141 24.16C209.621 23.9467 210.202 23.84 210.885 23.84C211.93 23.84 212.757 24.1013 213.365 24.624C213.973 25.1467 214.277 25.904 214.277 26.896V29.856C214.277 30.176 214.426 30.336 214.725 30.336H215.365V32H214.021C213.626 32 213.301 31.904 213.045 31.712C212.789 31.52 212.661 31.264 212.661 30.944V30.928H212.357C212.314 31.056 212.218 31.2267 212.069 31.44C211.919 31.6427 211.685 31.824 211.365 31.984C211.045 32.144 210.607 32.224 210.053 32.224ZM210.405 30.592C210.97 30.592 211.429 30.4373 211.781 30.128C212.143 29.808 212.325 29.3867 212.325 28.864V28.704H210.293C209.919 28.704 209.626 28.784 209.413 28.944C209.199 29.104 209.093 29.328 209.093 29.616C209.093 29.904 209.205 30.1387 209.429 30.32C209.653 30.5013 209.978 30.592 210.405 30.592ZM216.839 32V24.064H218.823V24.928H219.111C219.249 24.6613 219.479 24.432 219.799 24.24C220.119 24.0373 220.54 23.936 221.063 23.936C221.628 23.936 222.081 24.048 222.423 24.272C222.764 24.4853 223.025 24.768 223.207 25.12H223.495C223.676 24.7787 223.932 24.496 224.263 24.272C224.593 24.048 225.063 23.936 225.671 23.936C226.161 23.936 226.604 24.0427 226.999 24.256C227.404 24.4587 227.724 24.7733 227.959 25.2C228.204 25.616 228.327 26.144 228.327 26.784V32H226.311V26.928C226.311 26.4907 226.199 26.1653 225.975 25.952C225.751 25.728 225.436 25.616 225.031 25.616C224.572 25.616 224.215 25.7653 223.959 26.064C223.713 26.352 223.591 26.768 223.591 27.312V32H221.575V26.928C221.575 26.4907 221.463 26.1653 221.239 25.952C221.015 25.728 220.7 25.616 220.295 25.616C219.836 25.616 219.479 25.7653 219.223 26.064C218.977 26.352 218.855 26.768 218.855 27.312V32H216.839ZM230.495 35.2V24.064H232.479V25.024H232.767C232.948 24.7147 233.231 24.4427 233.615 24.208C233.999 23.9627 234.548 23.84 235.263 23.84C235.903 23.84 236.495 24 237.039 24.32C237.583 24.6293 238.02 25.088 238.351 25.696C238.682 26.304 238.847 27.04 238.847 27.904V28.16C238.847 29.024 238.682 29.76 238.351 30.368C238.02 30.976 237.583 31.44 237.039 31.76C236.495 32.0693 235.903 32.224 235.263 32.224C234.783 32.224 234.378 32.1653 234.047 32.048C233.727 31.9413 233.466 31.8027 233.263 31.632C233.071 31.4507 232.916 31.2693 232.799 31.088H232.511V35.2H230.495ZM234.655 30.464C235.284 30.464 235.802 30.2667 236.207 29.872C236.623 29.4667 236.831 28.88 236.831 28.112V27.952C236.831 27.184 236.623 26.6027 236.207 26.208C235.791 25.8027 235.274 25.6 234.655 25.6C234.036 25.6 233.519 25.8027 233.103 26.208C232.687 26.6027 232.479 27.184 232.479 27.952V28.112C232.479 28.88 232.687 29.4667 233.103 29.872C233.519 30.2667 234.036 30.464 234.655 30.464ZM240.698 32V20.8H242.714V32H240.698ZM248.564 32.224C247.775 32.224 247.076 32.0587 246.468 31.728C245.871 31.3867 245.401 30.912 245.06 30.304C244.729 29.6853 244.564 28.96 244.564 28.128V27.936C244.564 27.104 244.729 26.384 245.06 25.776C245.391 25.1573 245.855 24.6827 246.452 24.352C247.049 24.0107 247.743 23.84 248.532 23.84C249.311 23.84 249.988 24.016 250.564 24.368C251.14 24.7093 251.588 25.1893 251.908 25.808C252.228 26.416 252.388 27.1253 252.388 27.936V28.624H246.612C246.633 29.168 246.836 29.6107 247.22 29.952C247.604 30.2933 248.073 30.464 248.628 30.464C249.193 30.464 249.609 30.3413 249.876 30.096C250.143 29.8507 250.345 29.5787 250.484 29.28L252.132 30.144C251.983 30.4213 251.764 30.7253 251.476 31.056C251.199 31.376 250.825 31.6533 250.356 31.888C249.887 32.112 249.289 32.224 248.564 32.224ZM246.628 27.12H250.34C250.297 26.6613 250.111 26.2933 249.78 26.016C249.46 25.7387 249.039 25.6 248.516 25.6C247.972 25.6 247.54 25.7387 247.22 26.016C246.9 26.2933 246.703 26.6613 246.628 27.12ZM257.479 32.224C256.444 32.224 255.596 32 254.935 31.552C254.273 31.104 253.873 30.464 253.735 29.632L255.591 29.152C255.665 29.5253 255.788 29.8187 255.959 30.032C256.14 30.2453 256.359 30.4 256.615 30.496C256.881 30.5813 257.169 30.624 257.479 30.624C257.948 30.624 258.295 30.544 258.519 30.384C258.743 30.2133 258.855 30.0053 258.855 29.76C258.855 29.5147 258.748 29.328 258.535 29.2C258.321 29.0613 257.98 28.9493 257.511 28.864L257.062 28.784C256.508 28.6773 256.001 28.5333 255.543 28.352C255.084 28.16 254.716 27.8987 254.439 27.568C254.161 27.2373 254.023 26.8107 254.023 26.288C254.023 25.4987 254.311 24.896 254.887 24.48C255.463 24.0533 256.22 23.84 257.159 23.84C258.044 23.84 258.78 24.0373 259.367 24.432C259.953 24.8267 260.337 25.344 260.519 25.984L258.647 26.56C258.561 26.1547 258.385 25.8667 258.119 25.696C257.863 25.5253 257.543 25.44 257.159 25.44C256.775 25.44 256.481 25.5093 256.279 25.648C256.076 25.776 255.975 25.9573 255.975 26.192C255.975 26.448 256.081 26.64 256.295 26.768C256.508 26.8853 256.796 26.976 257.159 27.04L257.607 27.12C258.204 27.2267 258.743 27.3707 259.223 27.552C259.713 27.7227 260.097 27.9733 260.375 28.304C260.663 28.624 260.807 29.0613 260.807 29.616C260.807 30.448 260.503 31.0933 259.895 31.552C259.297 32 258.492 32.224 257.479 32.224Z" fill="#353941"/>
<path d="M16 104C16 99.5817 19.5817 96 24 96H59C63.4183 96 67 99.5817 67 104V112C67 116.418 63.4183 120 59 120H24C19.5817 120 16 116.418 16 112V104Z" fill="white" fill-opacity="0.1"/>
<path d="M24 96.5H59C63.1421 96.5 66.5 99.8579 66.5 104V112C66.5 116.142 63.1421 119.5 59 119.5H24C19.8579 119.5 16.5 116.142 16.5 112V104C16.5 99.8579 19.8579 96.5 24 96.5Z" stroke="black" stroke-opacity="0.1"/>
<path d="M31.5 103.5H24.5C23.9477 103.5 23.5 103.948 23.5 104.5V111.5C23.5 112.052 23.9477 112.5 24.5 112.5H31.5C32.0523 112.5 32.5 112.052 32.5 111.5V104.5C32.5 103.948 32.0523 103.5 31.5 103.5Z" stroke="#353941" stroke-linecap="round" stroke-linejoin="round"/>
<path d="M30.5 108H29.5L28.5 110.5L27.5 105.5L26.5 108H25.5" stroke="#353941" stroke-linecap="round" stroke-linejoin="round"/>
<path d="M42.08 112.192C41.432 112.192 40.864 112.072 40.376 111.832C39.888 111.584 39.5 111.24 39.212 110.8C38.924 110.36 38.756 109.852 38.708 109.276L39.788 109.204C39.844 109.628 39.968 109.988 40.16 110.284C40.352 110.58 40.608 110.804 40.928 110.956C41.256 111.108 41.648 111.184 42.104 111.184C42.704 111.184 43.168 111.068 43.496 110.836C43.824 110.604 43.988 110.272 43.988 109.84C43.988 109.56 43.924 109.32 43.796 109.12C43.668 108.92 43.428 108.736 43.076 108.568C42.724 108.4 42.216 108.232 41.552 108.064C40.88 107.896 40.352 107.712 39.968 107.512C39.592 107.312 39.316 107.072 39.14 106.792C38.972 106.504 38.888 106.144 38.888 105.712C38.888 105.24 39 104.82 39.224 104.452C39.456 104.084 39.784 103.8 40.208 103.6C40.64 103.392 41.144 103.288 41.72 103.288C42.328 103.288 42.856 103.404 43.304 103.636C43.76 103.868 44.12 104.188 44.384 104.596C44.656 105.004 44.824 105.472 44.888 106L43.808 106.072C43.76 105.72 43.648 105.412 43.472 105.148C43.296 104.876 43.06 104.668 42.764 104.524C42.468 104.372 42.112 104.296 41.696 104.296C41.168 104.296 40.748 104.424 40.436 104.68C40.124 104.928 39.968 105.256 39.968 105.664C39.968 105.936 40.028 106.156 40.148 106.324C40.276 106.492 40.492 106.644 40.796 106.78C41.108 106.908 41.576 107.048 42.2 107.2C42.904 107.376 43.464 107.584 43.88 107.824C44.304 108.064 44.608 108.344 44.792 108.664C44.976 108.976 45.068 109.344 45.068 109.768C45.068 110.256 44.94 110.684 44.684 111.052C44.428 111.412 44.072 111.692 43.616 111.892C43.168 112.092 42.656 112.192 42.08 112.192ZM49.8613 112.192C49.2133 112.192 48.6453 112.072 48.1573 111.832C47.6693 111.584 47.2813 111.24 46.9933 110.8C46.7053 110.36 46.5373 109.852 46.4893 109.276L47.5693 109.204C47.6253 109.628 47.7493 109.988 47.9413 110.284C48.1333 110.58 48.3893 110.804 48.7093 110.956C49.0373 111.108 49.4293 111.184 49.8853 111.184C50.4853 111.184 50.9493 111.068 51.2773 110.836C51.6053 110.604 51.7693 110.272 51.7693 109.84C51.7693 109.56 51.7053 109.32 51.5773 109.12C51.4493 108.92 51.2093 108.736 50.8573 108.568C50.5053 108.4 49.9973 108.232 49.3333 108.064C48.6613 107.896 48.1333 107.712 47.7493 107.512C47.3733 107.312 47.0973 107.072 46.9213 106.792C46.7533 106.504 46.6693 106.144 46.6693 105.712C46.6693 105.24 46.7813 104.82 47.0053 104.452C47.2373 104.084 47.5653 103.8 47.9893 103.6C48.4213 103.392 48.9253 103.288 49.5013 103.288C50.1093 103.288 50.6373 103.404 51.0853 103.636C51.5413 103.868 51.9013 104.188 52.1653 104.596C52.4373 105.004 52.6053 105.472 52.6693 106L51.5893 106.072C51.5413 105.72 51.4293 105.412 51.2533 105.148C51.0773 104.876 50.8413 104.668 50.5453 104.524C50.2493 104.372 49.8933 104.296 49.4773 104.296C48.9493 104.296 48.5293 104.424 48.2173 104.68C47.9053 104.928 47.7493 105.256 47.7493 105.664C47.7493 105.936 47.8093 106.156 47.9293 106.324C48.0573 106.492 48.2733 106.644 48.5773 106.78C48.8893 106.908 49.3573 107.048 49.9813 107.2C50.6853 107.376 51.2453 107.584 51.6613 107.824C52.0853 108.064 52.3893 108.344 52.5733 108.664C52.7573 108.976 52.8493 109.344 52.8493 109.768C52.8493 110.256 52.7213 110.684 52.4653 111.052C52.2093 111.412 51.8533 111.692 51.3973 111.892C50.9493 112.092 50.4373 112.192 49.8613 112.192ZM56.2801 104.488H53.6281V103.48H59.9641V104.488H57.3121V112H56.2801V104.488Z" fill="#353941"/>
<path d="M305 102C305 97.5817 308.582 94 313 94H347C351.418 94 355 97.5817 355 102V110C355 114.418 351.418 118 347 118H313C308.582 118 305 114.418 305 110V102Z" fill="white" fill-opacity="0.1"/>
<path d="M313 94.5H347C351.142 94.5 354.5 97.8579 354.5 102V110C354.5 114.142 351.142 117.5 347 117.5H313C308.858 117.5 305.5 114.142 305.5 110V102C305.5 97.8579 308.858 94.5 313 94.5Z" stroke="black" stroke-opacity="0.1"/>
<path d="M318.5 101H314C313.735 101 313.48 101.105 313.293 101.293C313.105 101.48 313 101.735 313 102V110C313 110.265 313.105 110.52 313.293 110.707C313.48 110.895 313.735 111 314 111H320C320.265 111 320.52 110.895 320.707 110.707C320.895 110.52 321 110.265 321 110V103.5L318.5 101Z" stroke="#353941" stroke-linecap="round" stroke-linejoin="round"/>
<path d="M318 101V103C318 103.265 318.105 103.52 318.293 103.707C318.48 103.895 318.735 104 319 104H321" stroke="#353941" stroke-linecap="round" stroke-linejoin="round"/>
<path d="M315 107.5H315.005" stroke="#353941" stroke-linecap="round" stroke-linejoin="round"/>
<path d="M316.75 106.75C316.912 106.966 317 107.23 317 107.5C317 107.77 316.912 108.034 316.75 108.25" stroke="#353941" stroke-linecap="round" stroke-linejoin="round"/>
<path d="M318.5 106C318.825 106.433 319 106.959 319 107.5C319 108.041 318.825 108.567 318.5 109" stroke="#353941" stroke-linecap="round" stroke-linejoin="round"/>
<path d="M329.952 102.488H327.3V101.48H333.636V102.488H330.984V110H329.952V102.488ZM337.112 102.488H334.46V101.48H340.796V102.488H338.144V110H337.112V102.488ZM344.943 110.192C344.295 110.192 343.727 110.072 343.239 109.832C342.751 109.584 342.363 109.24 342.075 108.8C341.787 108.36 341.619 107.852 341.571 107.276L342.651 107.204C342.707 107.628 342.831 107.988 343.023 108.284C343.215 108.58 343.471 108.804 343.791 108.956C344.119 109.108 344.511 109.184 344.967 109.184C345.567 109.184 346.031 109.068 346.359 108.836C346.687 108.604 346.851 108.272 346.851 107.84C346.851 107.56 346.787 107.32 346.659 107.12C346.531 106.92 346.291 106.736 345.939 106.568C345.587 106.4 345.079 106.232 344.415 106.064C343.743 105.896 343.215 105.712 342.831 105.512C342.455 105.312 342.179 105.072 342.003 104.792C341.835 104.504 341.751 104.144 341.751 103.712C341.751 103.24 341.863 102.82 342.087 102.452C342.319 102.084 342.647 101.8 343.071 101.6C343.503 101.392 344.007 101.288 344.583 101.288C345.191 101.288 345.719 101.404 346.167 101.636C346.623 101.868 346.983 102.188 347.247 102.596C347.519 103.004 347.687 103.472 347.751 104L346.671 104.072C346.623 103.72 346.511 103.412 346.335 103.148C346.159 102.876 345.923 102.668 345.627 102.524C345.331 102.372 344.975 102.296 344.559 102.296C344.031 102.296 343.611 102.424 343.299 102.68C342.987 102.928 342.831 103.256 342.831 103.664C342.831 103.936 342.891 104.156 343.011 104.324C343.139 104.492 343.355 104.644 343.659 104.78C343.971 104.908 344.439 105.048 345.063 105.2C345.767 105.376 346.327 105.584 346.743 105.824C347.167 106.064 347.471 106.344 347.655 106.664C347.839 106.976 347.931 107.344 347.931 107.768C347.931 108.256 347.803 108.684 347.547 109.052C347.291 109.412 346.935 109.692 346.479 109.892C346.031 110.092 345.519 110.192 344.943 110.192Z" fill="#353941"/>
<path d="M243 144C243 139.582 246.582 136 251 136H347C351.418 136 355 139.582 355 144V152C355 156.418 351.418 160 347 160H251C246.582 160 243 156.418 243 152V144Z" fill="white" fill-opacity="0.1"/>
<path d="M251 136.5H347C351.142 136.5 354.5 139.858 354.5 144V152C354.5 156.142 351.142 159.5 347 159.5H251C246.858 159.5 243.5 156.142 243.5 152V144C243.5 139.858 246.858 136.5 251 136.5Z" stroke="black" stroke-opacity="0.1"/>
<path d="M258.5 143.5H251.5C250.948 143.5 250.5 143.948 250.5 144.5V151.5C250.5 152.052 250.948 152.5 251.5 152.5H258.5C259.052 152.5 259.5 152.052 259.5 151.5V144.5C259.5 143.948 259.052 143.5 258.5 143.5Z" stroke="#353941" stroke-linecap="round" stroke-linejoin="round"/>
<path d="M252.5 143.5V152.5" stroke="#353941" stroke-linecap="round" stroke-linejoin="round"/>
<path d="M250.5 145.75H252.5" stroke="#353941" stroke-linecap="round" stroke-linejoin="round"/>
<path d="M250.5 148H259.5" stroke="#353941" stroke-linecap="round" stroke-linejoin="round"/>
<path d="M250.5 150.25H252.5" stroke="#353941" stroke-linecap="round" stroke-linejoin="round"/>
<path d="M257.5 143.5V152.5" stroke="#353941" stroke-linecap="round" stroke-linejoin="round"/>
<path d="M257.5 145.75H259.5" stroke="#353941" stroke-linecap="round" stroke-linejoin="round"/>
<path d="M257.5 150.25H259.5" stroke="#353941" stroke-linecap="round" stroke-linejoin="round"/>
<path d="M265.252 143.48H266.38L269.02 150.872L271.648 143.48H272.776L269.692 152H268.336L265.252 143.48ZM273.147 145.64H274.155V152H273.147V145.64ZM273.123 143.468H274.179V144.644H273.123V143.468ZM277.529 152.144C276.985 152.144 276.509 152.008 276.101 151.736C275.693 151.464 275.381 151.08 275.165 150.584C274.949 150.08 274.841 149.492 274.841 148.82C274.841 148.148 274.949 147.564 275.165 147.068C275.381 146.564 275.693 146.176 276.101 145.904C276.509 145.632 276.985 145.496 277.529 145.496C277.961 145.496 278.349 145.588 278.693 145.772C279.045 145.956 279.309 146.208 279.485 146.528V143.48H280.493V152H279.581L279.545 151.04C279.369 151.384 279.101 151.656 278.741 151.856C278.381 152.048 277.977 152.144 277.529 152.144ZM277.733 151.184C278.101 151.184 278.417 151.088 278.681 150.896C278.945 150.704 279.145 150.432 279.281 150.08C279.417 149.728 279.485 149.308 279.485 148.82C279.485 148.332 279.417 147.912 279.281 147.56C279.145 147.2 278.945 146.928 278.681 146.744C278.425 146.552 278.109 146.456 277.733 146.456C277.173 146.456 276.725 146.668 276.389 147.092C276.061 147.508 275.897 148.084 275.897 148.82C275.897 149.548 276.061 150.124 276.389 150.548C276.725 150.972 277.173 151.184 277.733 151.184ZM284.089 152.144C283.497 152.144 282.981 152.008 282.541 151.736C282.101 151.464 281.761 151.08 281.521 150.584C281.289 150.08 281.173 149.492 281.173 148.82C281.173 148.156 281.289 147.572 281.521 147.068C281.761 146.564 282.097 146.176 282.529 145.904C282.961 145.632 283.465 145.496 284.041 145.496C284.593 145.496 285.081 145.628 285.505 145.892C285.929 146.148 286.257 146.528 286.489 147.032C286.729 147.536 286.849 148.136 286.849 148.832V149.132H282.229C282.261 149.804 282.437 150.316 282.757 150.668C283.085 151.012 283.529 151.184 284.089 151.184C284.497 151.184 284.833 151.092 285.097 150.908C285.369 150.716 285.561 150.452 285.673 150.116L286.753 150.2C286.585 150.784 286.261 151.256 285.781 151.616C285.309 151.968 284.745 152.144 284.089 152.144ZM285.745 148.244C285.697 147.652 285.521 147.208 285.217 146.912C284.921 146.608 284.529 146.456 284.041 146.456C283.545 146.456 283.137 146.608 282.817 146.912C282.505 147.216 282.309 147.66 282.229 148.244H285.745ZM289.999 152.144C289.415 152.144 288.903 152.008 288.463 151.736C288.023 151.464 287.683 151.08 287.443 150.584C287.203 150.08 287.083 149.492 287.083 148.82C287.083 148.148 287.203 147.564 287.443 147.068C287.683 146.564 288.023 146.176 288.463 145.904C288.903 145.632 289.415 145.496 289.999 145.496C290.575 145.496 291.083 145.632 291.523 145.904C291.963 146.176 292.303 146.564 292.543 147.068C292.783 147.564 292.903 148.148 292.903 148.82C292.903 149.492 292.783 150.08 292.543 150.584C292.303 151.08 291.963 151.464 291.523 151.736C291.083 152.008 290.575 152.144 289.999 152.144ZM289.999 151.184C290.583 151.184 291.035 150.976 291.355 150.56C291.683 150.136 291.847 149.556 291.847 148.82C291.847 148.084 291.683 147.508 291.355 147.092C291.035 146.668 290.583 146.456 289.999 146.456C289.415 146.456 288.959 146.664 288.631 147.08C288.303 147.496 288.139 148.076 288.139 148.82C288.139 149.564 288.303 150.144 288.631 150.56C288.959 150.976 289.415 151.184 289.999 151.184ZM299.18 152.192C298.396 152.192 297.716 152.004 297.14 151.628C296.572 151.244 296.136 150.716 295.832 150.044C295.528 149.372 295.376 148.608 295.376 147.752C295.376 146.896 295.528 146.132 295.832 145.46C296.144 144.78 296.588 144.248 297.164 143.864C297.74 143.48 298.42 143.288 299.204 143.288C300.172 143.288 300.94 143.544 301.508 144.056C302.076 144.568 302.444 145.248 302.612 146.096L301.532 146.168C301.42 145.576 301.176 145.116 300.8 144.788C300.424 144.46 299.892 144.296 299.204 144.296C298.284 144.296 297.596 144.624 297.14 145.28C296.684 145.928 296.456 146.752 296.456 147.752C296.456 148.424 296.552 149.016 296.744 149.528C296.944 150.04 297.248 150.444 297.656 150.74C298.072 151.036 298.588 151.184 299.204 151.184C299.692 151.184 300.12 151.072 300.488 150.848C300.864 150.624 301.152 150.32 301.352 149.936C301.56 149.552 301.668 149.132 301.676 148.676H299.228V147.692H302.636V152H301.868L301.796 150.032L301.94 150.2C301.844 150.584 301.66 150.928 301.388 151.232C301.124 151.528 300.796 151.764 300.404 151.94C300.02 152.108 299.612 152.192 299.18 152.192ZM306.041 152.144C305.449 152.144 304.933 152.008 304.493 151.736C304.053 151.464 303.713 151.08 303.473 150.584C303.241 150.08 303.125 149.492 303.125 148.82C303.125 148.156 303.241 147.572 303.473 147.068C303.713 146.564 304.049 146.176 304.481 145.904C304.913 145.632 305.417 145.496 305.993 145.496C306.545 145.496 307.033 145.628 307.457 145.892C307.881 146.148 308.209 146.528 308.441 147.032C308.681 147.536 308.801 148.136 308.801 148.832V149.132H304.181C304.213 149.804 304.389 150.316 304.709 150.668C305.037 151.012 305.481 151.184 306.041 151.184C306.449 151.184 306.785 151.092 307.049 150.908C307.321 150.716 307.513 150.452 307.625 150.116L308.705 150.2C308.537 150.784 308.213 151.256 307.733 151.616C307.261 151.968 306.697 152.144 306.041 152.144ZM307.697 148.244C307.649 147.652 307.473 147.208 307.169 146.912C306.873 146.608 306.481 146.456 305.993 146.456C305.497 146.456 305.089 146.608 304.769 146.912C304.457 147.216 304.261 147.66 304.181 148.244H307.697ZM309.431 145.64H310.355L310.391 147.26L310.271 147.152C310.383 146.608 310.623 146.196 310.991 145.916C311.367 145.636 311.815 145.496 312.335 145.496C313.031 145.496 313.563 145.72 313.931 146.168C314.299 146.616 314.483 147.196 314.483 147.908V152H313.475V148.196C313.475 147.596 313.367 147.144 313.151 146.84C312.935 146.536 312.591 146.384 312.119 146.384C311.615 146.384 311.207 146.544 310.895 146.864C310.591 147.176 310.439 147.62 310.439 148.196V152H309.431V145.64ZM317.908 152.144C317.316 152.144 316.8 152.008 316.36 151.736C315.92 151.464 315.58 151.08 315.34 150.584C315.108 150.08 314.992 149.492 314.992 148.82C314.992 148.156 315.108 147.572 315.34 147.068C315.58 146.564 315.916 146.176 316.348 145.904C316.78 145.632 317.284 145.496 317.86 145.496C318.412 145.496 318.9 145.628 319.324 145.892C319.748 146.148 320.076 146.528 320.308 147.032C320.548 147.536 320.668 148.136 320.668 148.832V149.132H316.048C316.08 149.804 316.256 150.316 316.576 150.668C316.904 151.012 317.348 151.184 317.908 151.184C318.316 151.184 318.652 151.092 318.916 150.908C319.188 150.716 319.38 150.452 319.492 150.116L320.572 150.2C320.404 150.784 320.08 151.256 319.6 151.616C319.128 151.968 318.564 152.144 317.908 152.144ZM319.564 148.244C319.516 147.652 319.34 147.208 319.036 146.912C318.74 146.608 318.348 146.456 317.86 146.456C317.364 146.456 316.956 146.608 316.636 146.912C316.324 147.216 316.128 147.66 316.048 148.244H319.564ZM321.298 145.64H322.186L322.234 147.248L322.138 147.212C322.218 146.676 322.39 146.28 322.654 146.024C322.918 145.768 323.278 145.64 323.734 145.64H324.358V146.6H323.746C323.426 146.6 323.158 146.66 322.942 146.78C322.734 146.892 322.574 147.064 322.462 147.296C322.358 147.528 322.306 147.816 322.306 148.16V152H321.298V145.64ZM326.429 152.144C325.765 152.144 325.241 151.992 324.857 151.688C324.473 151.384 324.281 150.96 324.281 150.416C324.281 149.872 324.441 149.444 324.761 149.132C325.081 148.82 325.589 148.6 326.285 148.472L328.541 148.052C328.541 147.516 328.413 147.116 328.157 146.852C327.909 146.588 327.533 146.456 327.029 146.456C326.597 146.456 326.249 146.552 325.985 146.744C325.729 146.936 325.553 147.22 325.457 147.596L324.389 147.512C324.509 146.896 324.801 146.408 325.265 146.048C325.737 145.68 326.325 145.496 327.029 145.496C327.837 145.496 328.457 145.724 328.889 146.18C329.329 146.636 329.549 147.272 329.549 148.088V150.716C329.549 150.86 329.573 150.964 329.621 151.028C329.677 151.084 329.765 151.112 329.885 151.112H330.137V152C330.089 152.008 330.033 152.012 329.969 152.012C329.905 152.02 329.833 152.024 329.753 152.024C329.313 152.024 329.001 151.92 328.817 151.712C328.633 151.504 328.541 151.16 328.541 150.68L328.661 150.704C328.581 151.112 328.325 151.456 327.893 151.736C327.461 152.008 326.973 152.144 326.429 152.144ZM326.525 151.256C326.941 151.256 327.301 151.176 327.605 151.016C327.909 150.848 328.141 150.624 328.301 150.344C328.461 150.056 328.541 149.736 328.541 149.384V148.928L326.477 149.312C326.061 149.384 325.765 149.504 325.589 149.672C325.421 149.832 325.337 150.048 325.337 150.32C325.337 150.616 325.441 150.848 325.649 151.016C325.857 151.176 326.149 151.256 326.525 151.256ZM332.411 152C331.835 152 331.407 151.868 331.127 151.604C330.855 151.34 330.719 150.928 330.719 150.368V144.152H331.727V150.344C331.727 150.624 331.787 150.824 331.907 150.944C332.035 151.056 332.235 151.112 332.507 151.112H333.419V152H332.411ZM329.783 145.64H333.419V146.528H329.783V145.64ZM333.978 145.64H334.986V152H333.978V145.64ZM333.954 143.468H335.01V144.644H333.954V143.468ZM338.587 152.144C338.003 152.144 337.491 152.008 337.051 151.736C336.611 151.464 336.271 151.08 336.031 150.584C335.791 150.08 335.671 149.492 335.671 148.82C335.671 148.148 335.791 147.564 336.031 147.068C336.271 146.564 336.611 146.176 337.051 145.904C337.491 145.632 338.003 145.496 338.587 145.496C339.163 145.496 339.671 145.632 340.111 145.904C340.551 146.176 340.891 146.564 341.131 147.068C341.371 147.564 341.491 148.148 341.491 148.82C341.491 149.492 341.371 150.08 341.131 150.584C340.891 151.08 340.551 151.464 340.111 151.736C339.671 152.008 339.163 152.144 338.587 152.144ZM338.587 151.184C339.171 151.184 339.623 150.976 339.943 150.56C340.271 150.136 340.435 149.556 340.435 148.82C340.435 148.084 340.271 147.508 339.943 147.092C339.623 146.668 339.171 146.456 338.587 146.456C338.003 146.456 337.547 146.664 337.219 147.08C336.891 147.496 336.727 148.076 336.727 148.82C336.727 149.564 336.891 150.144 337.219 150.56C337.547 150.976 338.003 151.184 338.587 151.184ZM342.118 145.64H343.042L343.078 147.26L342.958 147.152C343.07 146.608 343.31 146.196 343.678 145.916C344.054 145.636 344.502 145.496 345.022 145.496C345.718 145.496 346.25 145.72 346.618 146.168C346.986 146.616 347.17 147.196 347.17 147.908V152H346.162V148.196C346.162 147.596 346.054 147.144 345.838 146.84C345.622 146.536 345.278 146.384 344.806 146.384C344.302 146.384 343.894 146.544 343.582 146.864C343.278 147.176 343.126 147.62 343.126 148.196V152H342.118V145.64Z" fill="#353941"/>
<path d="M16 184C16 179.582 19.5817 176 24 176H99C103.418 176 107 179.582 107 184V192C107 196.418 103.418 200 99 200H24C19.5817 200 16 196.418 16 192V184Z" fill="white" fill-opacity="0.1"/>
<path d="M24 176.5H99C103.142 176.5 106.5 179.858 106.5 184V192C106.5 196.142 103.142 199.5 99 199.5H24C19.8579 199.5 16.5 196.142 16.5 192V184C16.5 179.858 19.8579 176.5 24 176.5Z" stroke="black" stroke-opacity="0.1"/>
<path d="M31 190C31 189.448 30.5523 189 30 189C29.4477 189 29 189.448 29 190V191C29 191.552 29.4477 192 30 192C30.5523 192 31 191.552 31 191V190Z" stroke="#353941" stroke-linecap="round" stroke-linejoin="round"/>
<path d="M27 185C27 184.448 26.5523 184 26 184C25.4477 184 25 184.448 25 185V186C25 186.552 25.4477 187 26 187C26.5523 187 27 186.552 27 186V185Z" stroke="#353941" stroke-linecap="round" stroke-linejoin="round"/>
<path d="M25 192H27" stroke="#353941" stroke-linecap="round" stroke-linejoin="round"/>
<path d="M29 187H31" stroke="#353941" stroke-linecap="round" stroke-linejoin="round"/>
<path d="M25 189H26V192" stroke="#353941" stroke-linecap="round" stroke-linejoin="round"/>
<path d="M29 184H30V187" stroke="#353941" stroke-linecap="round" stroke-linejoin="round"/>
<path d="M39.104 183.48H44.456V184.488H40.136V187.236H44.312V188.22H40.136V190.992H44.552V192H39.104V183.48ZM46.1905 185.64H47.1145L47.1505 187.248L47.0065 187.2C47.0785 186.856 47.2025 186.556 47.3785 186.3C47.5625 186.044 47.7865 185.848 48.0505 185.712C48.3145 185.568 48.6065 185.496 48.9265 185.496C49.4785 185.496 49.9265 185.648 50.2705 185.952C50.6225 186.248 50.8425 186.672 50.9305 187.224L50.7385 187.212C50.8345 186.668 51.0505 186.248 51.3865 185.952C51.7225 185.648 52.1585 185.496 52.6945 185.496C53.1425 185.496 53.5225 185.592 53.8345 185.784C54.1545 185.968 54.3945 186.24 54.5545 186.6C54.7145 186.96 54.7945 187.396 54.7945 187.908V192H53.7865V188.124C53.7865 187.548 53.6745 187.116 53.4505 186.828C53.2265 186.532 52.8945 186.384 52.4545 186.384C52.1585 186.384 51.8985 186.456 51.6745 186.6C51.4585 186.744 51.2905 186.952 51.1705 187.224C51.0505 187.496 50.9905 187.82 50.9905 188.196V192H49.9825V188.196C49.9825 187.612 49.8785 187.164 49.6705 186.852C49.4625 186.54 49.1305 186.384 48.6745 186.384C48.3785 186.384 48.1185 186.456 47.8945 186.6C47.6705 186.744 47.4985 186.956 47.3785 187.236C47.2585 187.508 47.1985 187.828 47.1985 188.196V192H46.1905V185.64ZM59.6299 192.144C59.1899 192.144 58.7979 192.048 58.4539 191.856C58.1099 191.664 57.8459 191.392 57.6619 191.04L57.6259 192H56.7139V183.48H57.7219V186.528C57.8899 186.24 58.1459 185.996 58.4899 185.796C58.8339 185.596 59.2139 185.496 59.6299 185.496C60.1819 185.496 60.6619 185.632 61.0699 185.904C61.4859 186.176 61.8059 186.564 62.0299 187.068C62.2539 187.564 62.3659 188.148 62.3659 188.82C62.3659 189.492 62.2539 190.08 62.0299 190.584C61.8059 191.08 61.4859 191.464 61.0699 191.736C60.6619 192.008 60.1819 192.144 59.6299 192.144ZM59.5699 191.184C60.1059 191.184 60.5299 190.972 60.8419 190.548C61.1539 190.124 61.3099 189.548 61.3099 188.82C61.3099 188.084 61.1539 187.508 60.8419 187.092C60.5379 186.668 60.1219 186.456 59.5939 186.456C59.2019 186.456 58.8659 186.552 58.5859 186.744C58.3059 186.928 58.0899 187.2 57.9379 187.56C57.7939 187.912 57.7219 188.332 57.7219 188.82C57.7219 189.3 57.7939 189.72 57.9379 190.08C58.0899 190.432 58.3019 190.704 58.5739 190.896C58.8539 191.088 59.1859 191.184 59.5699 191.184ZM66.3472 192.144C65.7552 192.144 65.2392 192.008 64.7992 191.736C64.3592 191.464 64.0192 191.08 63.7792 190.584C63.5472 190.08 63.4312 189.492 63.4312 188.82C63.4312 188.156 63.5472 187.572 63.7792 187.068C64.0192 186.564 64.3552 186.176 64.7872 185.904C65.2192 185.632 65.7232 185.496 66.2992 185.496C66.8512 185.496 67.3392 185.628 67.7632 185.892C68.1872 186.148 68.5152 186.528 68.7472 187.032C68.9872 187.536 69.1072 188.136 69.1072 188.832V189.132H64.4872C64.5192 189.804 64.6952 190.316 65.0152 190.668C65.3432 191.012 65.7872 191.184 66.3472 191.184C66.7552 191.184 67.0912 191.092 67.3552 190.908C67.6272 190.716 67.8192 190.452 67.9312 190.116L69.0112 190.2C68.8432 190.784 68.5192 191.256 68.0392 191.616C67.5672 191.968 67.0032 192.144 66.3472 192.144ZM68.0032 188.244C67.9552 187.652 67.7792 187.208 67.4752 186.912C67.1792 186.608 66.7872 186.456 66.2992 186.456C65.8032 186.456 65.3952 186.608 65.0752 186.912C64.7632 187.216 64.5672 187.66 64.4872 188.244H68.0032ZM72.8692 192.144C72.3252 192.144 71.8492 192.008 71.4412 191.736C71.0332 191.464 70.7212 191.08 70.5052 190.584C70.2892 190.08 70.1812 189.492 70.1812 188.82C70.1812 188.148 70.2892 187.564 70.5052 187.068C70.7212 186.564 71.0332 186.176 71.4412 185.904C71.8492 185.632 72.3252 185.496 72.8692 185.496C73.3012 185.496 73.6892 185.588 74.0332 185.772C74.3852 185.956 74.6492 186.208 74.8252 186.528V183.48H75.8332V192H74.9212L74.8852 191.04C74.7092 191.384 74.4412 191.656 74.0812 191.856C73.7212 192.048 73.3172 192.144 72.8692 192.144ZM73.0732 191.184C73.4412 191.184 73.7572 191.088 74.0212 190.896C74.2852 190.704 74.4852 190.432 74.6212 190.08C74.7572 189.728 74.8252 189.308 74.8252 188.82C74.8252 188.332 74.7572 187.912 74.6212 187.56C74.4852 187.2 74.2852 186.928 74.0212 186.744C73.7652 186.552 73.4492 186.456 73.0732 186.456C72.5132 186.456 72.0652 186.668 71.7292 187.092C71.4012 187.508 71.2372 188.084 71.2372 188.82C71.2372 189.548 71.4012 190.124 71.7292 190.548C72.0652 190.972 72.5132 191.184 73.0732 191.184ZM80.0411 192.144C79.4971 192.144 79.0211 192.008 78.6131 191.736C78.2051 191.464 77.8931 191.08 77.6771 190.584C77.4611 190.08 77.3531 189.492 77.3531 188.82C77.3531 188.148 77.4611 187.564 77.6771 187.068C77.8931 186.564 78.2051 186.176 78.6131 185.904C79.0211 185.632 79.4971 185.496 80.0411 185.496C80.4731 185.496 80.8611 185.588 81.2051 185.772C81.5571 185.956 81.8211 186.208 81.9971 186.528V183.48H83.0051V192H82.0931L82.0571 191.04C81.8811 191.384 81.6131 191.656 81.2531 191.856C80.8931 192.048 80.4891 192.144 80.0411 192.144ZM80.2451 191.184C80.6131 191.184 80.9291 191.088 81.1931 190.896C81.4571 190.704 81.6571 190.432 81.7931 190.08C81.9291 189.728 81.9971 189.308 81.9971 188.82C81.9971 188.332 81.9291 187.912 81.7931 187.56C81.6571 187.2 81.4571 186.928 81.1931 186.744C80.9371 186.552 80.6211 186.456 80.2451 186.456C79.6851 186.456 79.2371 186.668 78.9011 187.092C78.5731 187.508 78.4091 188.084 78.4091 188.82C78.4091 189.548 78.5731 190.124 78.9011 190.548C79.2371 190.972 79.6851 191.184 80.2451 191.184ZM84.6163 185.64H85.6243V192H84.6163V185.64ZM84.5923 183.468H85.6483V184.644H84.5923V183.468ZM87.3702 185.64H88.2942L88.3302 187.26L88.2102 187.152C88.3222 186.608 88.5622 186.196 88.9302 185.916C89.3062 185.636 89.7542 185.496 90.2742 185.496C90.9702 185.496 91.5022 185.72 91.8702 186.168C92.2382 186.616 92.4222 187.196 92.4222 187.908V192H91.4142V188.196C91.4142 187.596 91.3062 187.144 91.0902 186.84C90.8742 186.536 90.5302 186.384 90.0582 186.384C89.5542 186.384 89.1462 186.544 88.8342 186.864C88.5302 187.176 88.3782 187.62 88.3782 188.196V192H87.3702V185.64ZM96.615 193.944C96.167 193.944 95.755 193.868 95.379 193.716C95.011 193.564 94.703 193.348 94.455 193.068C94.207 192.788 94.039 192.464 93.951 192.096L95.007 192.024C95.111 192.344 95.287 192.584 95.535 192.744C95.783 192.904 96.143 192.984 96.615 192.984C97.199 192.984 97.643 192.868 97.947 192.636C98.251 192.404 98.403 192.056 98.403 191.592V190.56C98.243 190.896 97.995 191.164 97.659 191.364C97.331 191.564 96.959 191.664 96.543 191.664C96.007 191.664 95.527 191.536 95.103 191.28C94.687 191.016 94.359 190.652 94.119 190.188C93.887 189.716 93.771 189.18 93.771 188.58C93.771 187.98 93.887 187.448 94.119 186.984C94.351 186.512 94.671 186.148 95.079 185.892C95.495 185.628 95.967 185.496 96.495 185.496C96.943 185.496 97.343 185.6 97.695 185.808C98.055 186.016 98.307 186.296 98.451 186.648V185.64H99.411V191.568C99.411 192.312 99.163 192.892 98.667 193.308C98.171 193.732 97.487 193.944 96.615 193.944ZM96.591 190.704C96.951 190.704 97.267 190.62 97.539 190.452C97.811 190.276 98.023 190.028 98.175 189.708C98.327 189.388 98.403 189.012 98.403 188.58C98.411 188.148 98.339 187.772 98.187 187.452C98.043 187.132 97.831 186.888 97.551 186.72C97.279 186.544 96.959 186.456 96.591 186.456C96.039 186.456 95.607 186.648 95.295 187.032C94.983 187.408 94.827 187.924 94.827 188.58C94.827 189.236 94.983 189.756 95.295 190.14C95.615 190.516 96.047 190.704 96.591 190.704Z" fill="#353941"/>
<path d="M16 144C16 139.582 19.5817 136 24 136H122C126.418 136 130 139.582 130 144V152C130 156.418 126.418 160 122 160H24C19.5817 160 16 156.418 16 152V144Z" fill="white" fill-opacity="0.1"/>
<path d="M24 136.5H122C126.142 136.5 129.5 139.858 129.5 144V152C129.5 156.142 126.142 159.5 122 159.5H24C19.8579 159.5 16.5 156.142 16.5 152V144C16.5 139.858 19.8579 136.5 24 136.5Z" stroke="black" stroke-opacity="0.1"/>
<g clip-path="url(#clip0_1386_12302)">
<path d="M28.75 145.5C28.8881 145.5 29 145.388 29 145.25C29 145.112 28.8881 145 28.75 145C28.6119 145 28.5 145.112 28.5 145.25C28.5 145.388 28.6119 145.5 28.75 145.5Z" fill="#353941" stroke="#353941" stroke-linecap="round" stroke-linejoin="round"/>
<path d="M30.75 147.5C30.8881 147.5 31 147.388 31 147.25C31 147.112 30.8881 147 30.75 147C30.6119 147 30.5 147.112 30.5 147.25C30.5 147.388 30.6119 147.5 30.75 147.5Z" fill="#353941" stroke="#353941" stroke-linecap="round" stroke-linejoin="round"/>
<path d="M26.25 146C26.3881 146 26.5 145.888 26.5 145.75C26.5 145.612 26.3881 145.5 26.25 145.5C26.1119 145.5 26 145.612 26 145.75C26 145.888 26.1119 146 26.25 146Z" fill="#353941" stroke="#353941" stroke-linecap="round" stroke-linejoin="round"/>
<path d="M25.25 148.5C25.3881 148.5 25.5 148.388 25.5 148.25C25.5 148.112 25.3881 148 25.25 148C25.1119 148 25 148.112 25 148.25C25 148.388 25.1119 148.5 25.25 148.5Z" fill="#353941" stroke="#353941" stroke-linecap="round" stroke-linejoin="round"/>
<path d="M28 143C25.25 143 23 145.25 23 148C23 150.75 25.25 153 28 153C28.463 153 28.824 152.627 28.824 152.156C28.824 151.938 28.734 151.739 28.6055 151.594C28.4605 151.449 28.3865 151.268 28.3865 151.031C28.3846 150.921 28.4049 150.812 28.4461 150.71C28.4874 150.608 28.5487 150.515 28.6266 150.437C28.7044 150.359 28.7971 150.298 28.8991 150.257C29.0012 150.215 29.1105 150.195 29.2205 150.197H30.2185C31.744 150.197 32.996 148.946 32.996 147.42C32.9825 145.006 30.7305 143 28 143Z" stroke="#353941" stroke-linecap="round" stroke-linejoin="round"/>
</g>
<path d="M39.104 143.48H40.136V152H39.104V143.48ZM41.1786 145.64H42.1026L42.1386 147.248L41.9946 147.2C42.0666 146.856 42.1906 146.556 42.3666 146.3C42.5506 146.044 42.7746 145.848 43.0386 145.712C43.3026 145.568 43.5946 145.496 43.9146 145.496C44.4666 145.496 44.9146 145.648 45.2586 145.952C45.6106 146.248 45.8306 146.672 45.9186 147.224L45.7266 147.212C45.8226 146.668 46.0386 146.248 46.3746 145.952C46.7106 145.648 47.1466 145.496 47.6826 145.496C48.1306 145.496 48.5106 145.592 48.8226 145.784C49.1426 145.968 49.3826 146.24 49.5426 146.6C49.7026 146.96 49.7826 147.396 49.7826 147.908V152H48.7746V148.124C48.7746 147.548 48.6626 147.116 48.4386 146.828C48.2146 146.532 47.8826 146.384 47.4426 146.384C47.1466 146.384 46.8866 146.456 46.6626 146.6C46.4466 146.744 46.2786 146.952 46.1586 147.224C46.0386 147.496 45.9786 147.82 45.9786 148.196V152H44.9706V148.196C44.9706 147.612 44.8666 147.164 44.6586 146.852C44.4506 146.54 44.1186 146.384 43.6626 146.384C43.3666 146.384 43.1066 146.456 42.8826 146.6C42.6586 146.744 42.4866 146.956 42.3666 147.236C42.2466 147.508 42.1866 147.828 42.1866 148.196V152H41.1786V145.64ZM52.4968 152.144C51.8328 152.144 51.3088 151.992 50.9248 151.688C50.5408 151.384 50.3488 150.96 50.3488 150.416C50.3488 149.872 50.5088 149.444 50.8288 149.132C51.1488 148.82 51.6568 148.6 52.3528 148.472L54.6088 148.052C54.6088 147.516 54.4808 147.116 54.2248 146.852C53.9768 146.588 53.6008 146.456 53.0968 146.456C52.6648 146.456 52.3168 146.552 52.0528 146.744C51.7968 146.936 51.6208 147.22 51.5248 147.596L50.4568 147.512C50.5768 146.896 50.8688 146.408 51.3328 146.048C51.8048 145.68 52.3928 145.496 53.0968 145.496C53.9048 145.496 54.5248 145.724 54.9568 146.18C55.3968 146.636 55.6168 147.272 55.6168 148.088V150.716C55.6168 150.86 55.6408 150.964 55.6888 151.028C55.7448 151.084 55.8328 151.112 55.9528 151.112H56.2048V152C56.1568 152.008 56.1008 152.012 56.0368 152.012C55.9728 152.02 55.9008 152.024 55.8208 152.024C55.3808 152.024 55.0688 151.92 54.8848 151.712C54.7008 151.504 54.6088 151.16 54.6088 150.68L54.7288 150.704C54.6488 151.112 54.3928 151.456 53.9608 151.736C53.5288 152.008 53.0408 152.144 52.4968 152.144ZM52.5928 151.256C53.0088 151.256 53.3688 151.176 53.6728 151.016C53.9768 150.848 54.2088 150.624 54.3688 150.344C54.5288 150.056 54.6088 149.736 54.6088 149.384V148.928L52.5448 149.312C52.1288 149.384 51.8328 149.504 51.6568 149.672C51.4888 149.832 51.4048 150.048 51.4048 150.32C51.4048 150.616 51.5088 150.848 51.7168 151.016C51.9248 151.176 52.2168 151.256 52.5928 151.256ZM59.0794 153.944C58.6314 153.944 58.2194 153.868 57.8434 153.716C57.4754 153.564 57.1674 153.348 56.9194 153.068C56.6714 152.788 56.5034 152.464 56.4154 152.096L57.4714 152.024C57.5754 152.344 57.7514 152.584 57.9994 152.744C58.2474 152.904 58.6074 152.984 59.0794 152.984C59.6634 152.984 60.1074 152.868 60.4114 152.636C60.7154 152.404 60.8674 152.056 60.8674 151.592V150.56C60.7074 150.896 60.4594 151.164 60.1234 151.364C59.7954 151.564 59.4234 151.664 59.0074 151.664C58.4714 151.664 57.9914 151.536 57.5674 151.28C57.1514 151.016 56.8234 150.652 56.5834 150.188C56.3514 149.716 56.2354 149.18 56.2354 148.58C56.2354 147.98 56.3514 147.448 56.5834 146.984C56.8154 146.512 57.1354 146.148 57.5434 145.892C57.9594 145.628 58.4314 145.496 58.9594 145.496C59.4074 145.496 59.8074 145.6 60.1594 145.808C60.5194 146.016 60.7714 146.296 60.9154 146.648V145.64H61.8754V151.568C61.8754 152.312 61.6274 152.892 61.1314 153.308C60.6354 153.732 59.9514 153.944 59.0794 153.944ZM59.0554 150.704C59.4154 150.704 59.7314 150.62 60.0034 150.452C60.2754 150.276 60.4874 150.028 60.6394 149.708C60.7914 149.388 60.8674 149.012 60.8674 148.58C60.8754 148.148 60.8034 147.772 60.6514 147.452C60.5074 147.132 60.2954 146.888 60.0154 146.72C59.7434 146.544 59.4234 146.456 59.0554 146.456C58.5034 146.456 58.0714 146.648 57.7594 147.032C57.4474 147.408 57.2914 147.924 57.2914 148.58C57.2914 149.236 57.4474 149.756 57.7594 150.14C58.0794 150.516 58.5114 150.704 59.0554 150.704ZM65.2958 152.144C64.7038 152.144 64.1878 152.008 63.7478 151.736C63.3078 151.464 62.9678 151.08 62.7278 150.584C62.4958 150.08 62.3798 149.492 62.3798 148.82C62.3798 148.156 62.4958 147.572 62.7278 147.068C62.9678 146.564 63.3038 146.176 63.7358 145.904C64.1678 145.632 64.6718 145.496 65.2478 145.496C65.7998 145.496 66.2878 145.628 66.7118 145.892C67.1358 146.148 67.4638 146.528 67.6958 147.032C67.9358 147.536 68.0558 148.136 68.0558 148.832V149.132H63.4358C63.4678 149.804 63.6438 150.316 63.9638 150.668C64.2918 151.012 64.7358 151.184 65.2958 151.184C65.7038 151.184 66.0398 151.092 66.3038 150.908C66.5758 150.716 66.7678 150.452 66.8798 150.116L67.9598 150.2C67.7918 150.784 67.4678 151.256 66.9878 151.616C66.5158 151.968 65.9518 152.144 65.2958 152.144ZM66.9518 148.244C66.9038 147.652 66.7278 147.208 66.4238 146.912C66.1278 146.608 65.7358 146.456 65.2478 146.456C64.7518 146.456 64.3438 146.608 64.0238 146.912C63.7118 147.216 63.5158 147.66 63.4358 148.244H66.9518ZM74.3364 152.192C73.5524 152.192 72.8724 152.004 72.2964 151.628C71.7284 151.244 71.2924 150.716 70.9884 150.044C70.6844 149.372 70.5324 148.608 70.5324 147.752C70.5324 146.896 70.6844 146.132 70.9884 145.46C71.3004 144.78 71.7444 144.248 72.3204 143.864C72.8964 143.48 73.5764 143.288 74.3604 143.288C75.3284 143.288 76.0964 143.544 76.6644 144.056C77.2324 144.568 77.6004 145.248 77.7684 146.096L76.6884 146.168C76.5764 145.576 76.3324 145.116 75.9564 144.788C75.5804 144.46 75.0484 144.296 74.3604 144.296C73.4404 144.296 72.7524 144.624 72.2964 145.28C71.8404 145.928 71.6124 146.752 71.6124 147.752C71.6124 148.424 71.7084 149.016 71.9004 149.528C72.1004 150.04 72.4044 150.444 72.8124 150.74C73.2284 151.036 73.7444 151.184 74.3604 151.184C74.8484 151.184 75.2764 151.072 75.6444 150.848C76.0204 150.624 76.3084 150.32 76.5084 149.936C76.7164 149.552 76.8244 149.132 76.8324 148.676H74.3844V147.692H77.7924V152H77.0244L76.9524 150.032L77.0964 150.2C77.0004 150.584 76.8164 150.928 76.5444 151.232C76.2804 151.528 75.9524 151.764 75.5604 151.94C75.1764 152.108 74.7684 152.192 74.3364 152.192ZM81.1977 152.144C80.6057 152.144 80.0897 152.008 79.6497 151.736C79.2097 151.464 78.8697 151.08 78.6297 150.584C78.3977 150.08 78.2817 149.492 78.2817 148.82C78.2817 148.156 78.3977 147.572 78.6297 147.068C78.8697 146.564 79.2057 146.176 79.6377 145.904C80.0697 145.632 80.5737 145.496 81.1497 145.496C81.7017 145.496 82.1897 145.628 82.6137 145.892C83.0377 146.148 83.3657 146.528 83.5977 147.032C83.8377 147.536 83.9577 148.136 83.9577 148.832V149.132H79.3377C79.3697 149.804 79.5457 150.316 79.8657 150.668C80.1937 151.012 80.6377 151.184 81.1977 151.184C81.6057 151.184 81.9417 151.092 82.2057 150.908C82.4777 150.716 82.6697 150.452 82.7817 150.116L83.8617 150.2C83.6937 150.784 83.3697 151.256 82.8897 151.616C82.4177 151.968 81.8537 152.144 81.1977 152.144ZM82.8537 148.244C82.8057 147.652 82.6297 147.208 82.3257 146.912C82.0297 146.608 81.6377 146.456 81.1497 146.456C80.6537 146.456 80.2457 146.608 79.9257 146.912C79.6137 147.216 79.4177 147.66 79.3377 148.244H82.8537ZM84.5877 145.64H85.5117L85.5477 147.26L85.4277 147.152C85.5397 146.608 85.7797 146.196 86.1477 145.916C86.5237 145.636 86.9717 145.496 87.4917 145.496C88.1877 145.496 88.7197 145.72 89.0877 146.168C89.4557 146.616 89.6397 147.196 89.6397 147.908V152H88.6317V148.196C88.6317 147.596 88.5237 147.144 88.3077 146.84C88.0917 146.536 87.7477 146.384 87.2757 146.384C86.7717 146.384 86.3637 146.544 86.0517 146.864C85.7477 147.176 85.5957 147.62 85.5957 148.196V152H84.5877V145.64ZM93.0645 152.144C92.4725 152.144 91.9565 152.008 91.5165 151.736C91.0765 151.464 90.7365 151.08 90.4965 150.584C90.2645 150.08 90.1485 149.492 90.1485 148.82C90.1485 148.156 90.2645 147.572 90.4965 147.068C90.7365 146.564 91.0725 146.176 91.5045 145.904C91.9365 145.632 92.4405 145.496 93.0165 145.496C93.5685 145.496 94.0565 145.628 94.4805 145.892C94.9045 146.148 95.2325 146.528 95.4645 147.032C95.7045 147.536 95.8245 148.136 95.8245 148.832V149.132H91.2045C91.2365 149.804 91.4125 150.316 91.7325 150.668C92.0605 151.012 92.5045 151.184 93.0645 151.184C93.4725 151.184 93.8085 151.092 94.0725 150.908C94.3445 150.716 94.5365 150.452 94.6485 150.116L95.7285 150.2C95.5605 150.784 95.2365 151.256 94.7565 151.616C94.2845 151.968 93.7205 152.144 93.0645 152.144ZM94.7205 148.244C94.6725 147.652 94.4965 147.208 94.1925 146.912C93.8965 146.608 93.5045 146.456 93.0165 146.456C92.5205 146.456 92.1125 146.608 91.7925 146.912C91.4805 147.216 91.2845 147.66 91.2045 148.244H94.7205ZM96.4545 145.64H97.3425L97.3905 147.248L97.2945 147.212C97.3745 146.676 97.5465 146.28 97.8105 146.024C98.0745 145.768 98.4345 145.64 98.8905 145.64H99.5145V146.6H98.9025C98.5825 146.6 98.3145 146.66 98.0985 146.78C97.8905 146.892 97.7305 147.064 97.6185 147.296C97.5145 147.528 97.4625 147.816 97.4625 148.16V152H96.4545V145.64ZM101.585 152.144C100.921 152.144 100.397 151.992 100.013 151.688C99.6293 151.384 99.4373 150.96 99.4373 150.416C99.4373 149.872 99.5973 149.444 99.9173 149.132C100.237 148.82 100.745 148.6 101.441 148.472L103.697 148.052C103.697 147.516 103.569 147.116 103.313 146.852C103.065 146.588 102.689 146.456 102.185 146.456C101.753 146.456 101.405 146.552 101.141 146.744C100.885 146.936 100.709 147.22 100.613 147.596L99.5453 147.512C99.6653 146.896 99.9573 146.408 100.421 146.048C100.893 145.68 101.481 145.496 102.185 145.496C102.993 145.496 103.613 145.724 104.045 146.18C104.485 146.636 104.705 147.272 104.705 148.088V150.716C104.705 150.86 104.729 150.964 104.777 151.028C104.833 151.084 104.921 151.112 105.041 151.112H105.293V152C105.245 152.008 105.189 152.012 105.125 152.012C105.061 152.02 104.989 152.024 104.909 152.024C104.469 152.024 104.157 151.92 103.973 151.712C103.789 151.504 103.697 151.16 103.697 150.68L103.817 150.704C103.737 151.112 103.481 151.456 103.049 151.736C102.617 152.008 102.129 152.144 101.585 152.144ZM101.681 151.256C102.097 151.256 102.457 151.176 102.761 151.016C103.065 150.848 103.297 150.624 103.457 150.344C103.617 150.056 103.697 149.736 103.697 149.384V148.928L101.633 149.312C101.217 149.384 100.921 149.504 100.745 149.672C100.577 149.832 100.493 150.048 100.493 150.32C100.493 150.616 100.597 150.848 100.805 151.016C101.013 151.176 101.305 151.256 101.681 151.256ZM107.567 152C106.991 152 106.563 151.868 106.283 151.604C106.011 151.34 105.875 150.928 105.875 150.368V144.152H106.883V150.344C106.883 150.624 106.943 150.824 107.063 150.944C107.191 151.056 107.391 151.112 107.663 151.112H108.575V152H107.567ZM104.939 145.64H108.575V146.528H104.939V145.64ZM109.134 145.64H110.142V152H109.134V145.64ZM109.11 143.468H110.166V144.644H109.11V143.468ZM113.743 152.144C113.159 152.144 112.647 152.008 112.207 151.736C111.767 151.464 111.427 151.08 111.187 150.584C110.947 150.08 110.827 149.492 110.827 148.82C110.827 148.148 110.947 147.564 111.187 147.068C111.427 146.564 111.767 146.176 112.207 145.904C112.647 145.632 113.159 145.496 113.743 145.496C114.319 145.496 114.827 145.632 115.267 145.904C115.707 146.176 116.047 146.564 116.287 147.068C116.527 147.564 116.647 148.148 116.647 148.82C116.647 149.492 116.527 150.08 116.287 150.584C116.047 151.08 115.707 151.464 115.267 151.736C114.827 152.008 114.319 152.144 113.743 152.144ZM113.743 151.184C114.327 151.184 114.779 150.976 115.099 150.56C115.427 150.136 115.591 149.556 115.591 148.82C115.591 148.084 115.427 147.508 115.099 147.092C114.779 146.668 114.327 146.456 113.743 146.456C113.159 146.456 112.703 146.664 112.375 147.08C112.047 147.496 111.883 148.076 111.883 148.82C111.883 149.564 112.047 150.144 112.375 150.56C112.703 150.976 113.159 151.184 113.743 151.184ZM117.274 145.64H118.198L118.234 147.26L118.114 147.152C118.226 146.608 118.466 146.196 118.834 145.916C119.21 145.636 119.658 145.496 120.178 145.496C120.874 145.496 121.406 145.72 121.774 146.168C122.142 146.616 122.326 147.196 122.326 147.908V152H121.318V148.196C121.318 147.596 121.21 147.144 120.994 146.84C120.778 146.536 120.434 146.384 119.962 146.384C119.458 146.384 119.05 146.544 118.738 146.864C118.434 147.176 118.282 147.62 118.282 148.196V152H117.274V145.64Z" fill="#353941"/>
<path d="M271 184C271 179.582 274.582 176 279 176H347C351.418 176 355 179.582 355 184V192C355 196.418 351.418 200 347 200H279C274.582 200 271 196.418 271 192V184Z" fill="white" fill-opacity="0.1"/>
<path d="M279 176.5H347C351.142 176.5 354.5 179.858 354.5 184V192C354.5 196.142 351.142 199.5 347 199.5H279C274.858 199.5 271.5 196.142 271.5 192V184C271.5 179.858 274.858 176.5 279 176.5Z" stroke="black" stroke-opacity="0.1"/>
<path d="M278.5 190L280.5 192L282.5 190" stroke="#353941" stroke-linecap="round" stroke-linejoin="round"/>
<path d="M280.5 192V184" stroke="#353941" stroke-linecap="round" stroke-linejoin="round"/>
<path d="M287 186H284.5" stroke="#353941" stroke-linecap="round" stroke-linejoin="round"/>
<path d="M284.5 187V185.25C284.5 184.918 284.632 184.601 284.866 184.366C285.101 184.132 285.418 184 285.75 184C286.082 184 286.399 184.132 286.634 184.366C286.868 184.601 287 184.918 287 185.25V187" stroke="#353941" stroke-linecap="round" stroke-linejoin="round"/>
<path d="M284.5 189H287L284.5 192H287" stroke="#353941" stroke-linecap="round" stroke-linejoin="round"/>
<path d="M294.104 183.48H297.332C297.924 183.48 298.436 183.584 298.868 183.792C299.308 184 299.644 184.3 299.876 184.692C300.116 185.084 300.236 185.54 300.236 186.06C300.236 186.428 300.148 186.764 299.972 187.068C299.796 187.372 299.564 187.616 299.276 187.8C298.996 187.976 298.704 188.072 298.4 188.088L298.328 187.98C298.856 187.98 299.268 188.104 299.564 188.352C299.86 188.592 300.032 188.972 300.08 189.492L300.32 192H299.276L299.06 189.6C299.028 189.24 298.9 188.98 298.676 188.82C298.452 188.652 298.096 188.568 297.608 188.568H295.136V192H294.104V183.48ZM297.464 187.56C297.984 187.56 298.396 187.428 298.7 187.164C299.004 186.9 299.156 186.524 299.156 186.036C299.156 185.54 298.996 185.16 298.676 184.896C298.364 184.624 297.916 184.488 297.332 184.488H295.136V187.56H297.464ZM304.367 192.144C303.775 192.144 303.259 192.008 302.819 191.736C302.379 191.464 302.039 191.08 301.799 190.584C301.567 190.08 301.451 189.492 301.451 188.82C301.451 188.156 301.567 187.572 301.799 187.068C302.039 186.564 302.375 186.176 302.807 185.904C303.239 185.632 303.743 185.496 304.319 185.496C304.871 185.496 305.359 185.628 305.783 185.892C306.207 186.148 306.535 186.528 306.767 187.032C307.007 187.536 307.127 188.136 307.127 188.832V189.132H302.507C302.539 189.804 302.715 190.316 303.035 190.668C303.363 191.012 303.807 191.184 304.367 191.184C304.775 191.184 305.111 191.092 305.375 190.908C305.647 190.716 305.839 190.452 305.951 190.116L307.031 190.2C306.863 190.784 306.539 191.256 306.059 191.616C305.587 191.968 305.023 192.144 304.367 192.144ZM306.023 188.244C305.975 187.652 305.799 187.208 305.495 186.912C305.199 186.608 304.807 186.456 304.319 186.456C303.823 186.456 303.415 186.608 303.095 186.912C302.783 187.216 302.587 187.66 302.507 188.244H306.023ZM308.597 185.64H309.485L309.533 187.248L309.437 187.212C309.517 186.676 309.689 186.28 309.953 186.024C310.217 185.768 310.577 185.64 311.033 185.64H311.657V186.6H311.045C310.725 186.6 310.457 186.66 310.241 186.78C310.033 186.892 309.873 187.064 309.761 187.296C309.657 187.528 309.605 187.816 309.605 188.16V192H308.597V185.64ZM314.567 192.144C313.903 192.144 313.379 191.992 312.995 191.688C312.611 191.384 312.419 190.96 312.419 190.416C312.419 189.872 312.579 189.444 312.899 189.132C313.219 188.82 313.727 188.6 314.423 188.472L316.679 188.052C316.679 187.516 316.551 187.116 316.295 186.852C316.047 186.588 315.671 186.456 315.167 186.456C314.735 186.456 314.387 186.552 314.123 186.744C313.867 186.936 313.691 187.22 313.595 187.596L312.527 187.512C312.647 186.896 312.939 186.408 313.403 186.048C313.875 185.68 314.463 185.496 315.167 185.496C315.975 185.496 316.595 185.724 317.027 186.18C317.467 186.636 317.687 187.272 317.687 188.088V190.716C317.687 190.86 317.711 190.964 317.759 191.028C317.815 191.084 317.903 191.112 318.023 191.112H318.275V192C318.227 192.008 318.171 192.012 318.107 192.012C318.043 192.02 317.971 192.024 317.891 192.024C317.451 192.024 317.139 191.92 316.955 191.712C316.771 191.504 316.679 191.16 316.679 190.68L316.799 190.704C316.719 191.112 316.463 191.456 316.031 191.736C315.599 192.008 315.111 192.144 314.567 192.144ZM314.663 191.256C315.079 191.256 315.439 191.176 315.743 191.016C316.047 190.848 316.279 190.624 316.439 190.344C316.599 190.056 316.679 189.736 316.679 189.384V188.928L314.615 189.312C314.199 189.384 313.903 189.504 313.727 189.672C313.559 189.832 313.475 190.048 313.475 190.32C313.475 190.616 313.579 190.848 313.787 191.016C313.995 191.176 314.287 191.256 314.663 191.256ZM319.601 185.64H320.525L320.561 187.26L320.441 187.152C320.553 186.608 320.793 186.196 321.161 185.916C321.537 185.636 321.985 185.496 322.505 185.496C323.201 185.496 323.733 185.72 324.101 186.168C324.469 186.616 324.653 187.196 324.653 187.908V192H323.645V188.196C323.645 187.596 323.537 187.144 323.321 186.84C323.105 186.536 322.761 186.384 322.289 186.384C321.785 186.384 321.377 186.544 321.065 186.864C320.761 187.176 320.609 187.62 320.609 188.196V192H319.601V185.64ZM326.339 183.48H327.347V189.06L330.443 185.64H331.787L329.279 188.34L331.895 192H330.671L328.595 189.024L327.347 190.344V192H326.339V183.48ZM333.112 185.64H334.12V192H333.112V185.64ZM333.088 183.468H334.144V184.644H333.088V183.468ZM335.866 185.64H336.79L336.826 187.26L336.706 187.152C336.818 186.608 337.058 186.196 337.426 185.916C337.802 185.636 338.25 185.496 338.77 185.496C339.466 185.496 339.998 185.72 340.366 186.168C340.734 186.616 340.918 187.196 340.918 187.908V192H339.91V188.196C339.91 187.596 339.802 187.144 339.586 186.84C339.37 186.536 339.026 186.384 338.554 186.384C338.05 186.384 337.642 186.544 337.33 186.864C337.026 187.176 336.874 187.62 336.874 188.196V192H335.866V185.64ZM345.111 193.944C344.663 193.944 344.251 193.868 343.875 193.716C343.507 193.564 343.199 193.348 342.951 193.068C342.703 192.788 342.535 192.464 342.447 192.096L343.503 192.024C343.607 192.344 343.783 192.584 344.031 192.744C344.279 192.904 344.639 192.984 345.111 192.984C345.695 192.984 346.139 192.868 346.443 192.636C346.747 192.404 346.899 192.056 346.899 191.592V190.56C346.739 190.896 346.491 191.164 346.155 191.364C345.827 191.564 345.455 191.664 345.039 191.664C344.503 191.664 344.023 191.536 343.599 191.28C343.183 191.016 342.855 190.652 342.615 190.188C342.383 189.716 342.267 189.18 342.267 188.58C342.267 187.98 342.383 187.448 342.615 186.984C342.847 186.512 343.167 186.148 343.575 185.892C343.991 185.628 344.463 185.496 344.991 185.496C345.439 185.496 345.839 185.6 346.191 185.808C346.551 186.016 346.803 186.296 346.947 186.648V185.64H347.907V191.568C347.907 192.312 347.659 192.892 347.163 193.308C346.667 193.732 345.983 193.944 345.111 193.944ZM345.087 190.704C345.447 190.704 345.763 190.62 346.035 190.452C346.307 190.276 346.519 190.028 346.671 189.708C346.823 189.388 346.899 189.012 346.899 188.58C346.907 188.148 346.835 187.772 346.683 187.452C346.539 187.132 346.327 186.888 346.047 186.72C345.775 186.544 345.455 186.456 345.087 186.456C344.535 186.456 344.103 186.648 343.791 187.032C343.479 187.408 343.323 187.924 343.323 188.58C343.323 189.236 343.479 189.756 343.791 190.14C344.111 190.516 344.543 190.704 345.087 190.704Z" fill="#353941"/>
<path d="M211 147.25C210.586 147.25 210.25 147.586 210.25 148C210.25 148.414 210.586 148.75 211 148.75V148V147.25ZM211.5 148.75C211.914 148.75 212.25 148.414 212.25 148C212.25 147.586 211.914 147.25 211.5 147.25V148V148.75ZM214.5 147.25C214.086 147.25 213.75 147.586 213.75 148C213.75 148.414 214.086 148.75 214.5 148.75V148V147.25ZM215.5 148.75C215.914 148.75 216.25 148.414 216.25 148C216.25 147.586 215.914 147.25 215.5 147.25V148V148.75ZM218.5 147.25C218.086 147.25 217.75 147.586 217.75 148C217.75 148.414 218.086 148.75 218.5 148.75V148V147.25ZM219.5 148.75C219.914 148.75 220.25 148.414 220.25 148C220.25 147.586 219.914 147.25 219.5 147.25V148V148.75ZM222.5 147.25C222.086 147.25 221.75 147.586 221.75 148C221.75 148.414 222.086 148.75 222.5 148.75V148V147.25ZM223.5 148.75C223.914 148.75 224.25 148.414 224.25 148C224.25 147.586 223.914 147.25 223.5 147.25V148V148.75ZM226.5 147.25C226.086 147.25 225.75 147.586 225.75 148C225.75 148.414 226.086 148.75 226.5 148.75V148V147.25ZM227.5 148.75C227.914 148.75 228.25 148.414 228.25 148C228.25 147.586 227.914 147.25 227.5 147.25V148V148.75ZM230.5 147.25C230.086 147.25 229.75 147.586 229.75 148C229.75 148.414 230.086 148.75 230.5 148.75V148V147.25ZM231.5 148.75C231.914 148.75 232.25 148.414 232.25 148C232.25 147.586 231.914 147.25 231.5 147.25V148V148.75ZM234.5 147.25C234.086 147.25 233.75 147.586 233.75 148C233.75 148.414 234.086 148.75 234.5 148.75V148V147.25ZM235.5 148.75C235.914 148.75 236.25 148.414 236.25 148C236.25 147.586 235.914 147.25 235.5 147.25V148V148.75ZM238.5 147.25C238.086 147.25 237.75 147.586 237.75 148C237.75 148.414 238.086 148.75 238.5 148.75V148V147.25ZM239.5 148.75C239.914 148.75 240.25 148.414 240.25 148C240.25 147.586 239.914 147.25 239.5 147.25V148V148.75ZM242.5 147.25C242.086 147.25 241.75 147.586 241.75 148C241.75 148.414 242.086 148.75 242.5 148.75V148V147.25ZM211 148V148.75H211.5V148V147.25H211V148ZM214.5 148V148.75H215.5V148V147.25H214.5V148ZM218.5 148V148.75H219.5V148V147.25H218.5V148ZM222.5 148V148.75H223.5V148V147.25H222.5V148ZM226.5 148V148.75H227.5V148V147.25H226.5V148ZM230.5 148V148.75H231.5V148V147.25H230.5V148ZM234.5 148V148.75H235.5V148V147.25H234.5V148ZM238.5 148V148.75H239.5V148V147.25H238.5V148ZM242.5 148V148.75H243V148V147.25H242.5V148Z" fill="url(#paint0_linear_1386_12302)"/>
<path d="M186.25 124C186.25 124.414 186.586 124.75 187 124.75C187.414 124.75 187.75 124.414 187.75 124L187 124L186.25 124ZM186.25 84.5C186.25 84.9142 186.586 85.25 187 85.25C187.414 85.25 187.75 84.9142 187.75 84.5L187 84.5L186.25 84.5ZM187.75 87.5C187.75 87.0858 187.414 86.75 187 86.75C186.586 86.75 186.25 87.0858 186.25 87.5L187 87.5L187.75 87.5ZM186.25 88.5C186.25 88.9142 186.586 89.25 187 89.25C187.414 89.25 187.75 88.9142 187.75 88.5L187 88.5L186.25 88.5ZM187.75 91.5C187.75 91.0858 187.414 90.75 187 90.75C186.586 90.75 186.25 91.0858 186.25 91.5L187 91.5L187.75 91.5ZM186.25 92.5C186.25 92.9142 186.586 93.25 187 93.25C187.414 93.25 187.75 92.9142 187.75 92.5L187 92.5L186.25 92.5ZM187.75 95.5C187.75 95.0858 187.414 94.75 187 94.75C186.586 94.75 186.25 95.0858 186.25 95.5L187 95.5L187.75 95.5ZM186.25 96.5C186.25 96.9142 186.586 97.25 187 97.25C187.414 97.25 187.75 96.9142 187.75 96.5L187 96.5L186.25 96.5ZM187.75 99.5C187.75 99.0858 187.414 98.75 187 98.75C186.586 98.75 186.25 99.0858 186.25 99.5L187 99.5L187.75 99.5ZM186.25 100.5C186.25 100.914 186.586 101.25 187 101.25C187.414 101.25 187.75 100.914 187.75 100.5L187 100.5L186.25 100.5ZM187.75 103.5C187.75 103.086 187.414 102.75 187 102.75C186.586 102.75 186.25 103.086 186.25 103.5L187 103.5L187.75 103.5ZM186.25 104.5C186.25 104.914 186.586 105.25 187 105.25C187.414 105.25 187.75 104.914 187.75 104.5L187 104.5L186.25 104.5ZM187.75 107.5C187.75 107.086 187.414 106.75 187 106.75C186.586 106.75 186.25 107.086 186.25 107.5L187 107.5L187.75 107.5ZM186.25 108.5C186.25 108.914 186.586 109.25 187 109.25C187.414 109.25 187.75 108.914 187.75 108.5L187 108.5L186.25 108.5ZM187.75 111.5C187.75 111.086 187.414 110.75 187 110.75C186.586 110.75 186.25 111.086 186.25 111.5L187 111.5L187.75 111.5ZM186.25 112.5C186.25 112.914 186.586 113.25 187 113.25C187.414 113.25 187.75 112.914 187.75 112.5L187 112.5L186.25 112.5ZM187.75 115.5C187.75 115.086 187.414 114.75 187 114.75C186.586 114.75 186.25 115.086 186.25 115.5L187 115.5L187.75 115.5ZM186.25 116.5C186.25 116.914 186.586 117.25 187 117.25C187.414 117.25 187.75 116.914 187.75 116.5L187 116.5L186.25 116.5ZM187.75 119.5C187.75 119.086 187.414 118.75 187 118.75C186.586 118.75 186.25 119.086 186.25 119.5L187 119.5L187.75 119.5ZM186.25 120.5C186.25 120.914 186.586 121.25 187 121.25C187.414 121.25 187.75 120.914 187.75 120.5L187 120.5L186.25 120.5ZM187.75 123.5C187.75 123.086 187.414 122.75 187 122.75C186.586 122.75 186.25 123.086 186.25 123.5L187 123.5L187.75 123.5ZM187 84L186.25 84L186.25 84.5L187 84.5L187.75 84.5L187.75 84L187 84ZM187 87.5L186.25 87.5L186.25 88.5L187 88.5L187.75 88.5L187.75 87.5L187 87.5ZM187 91.5L186.25 91.5L186.25 92.5L187 92.5L187.75 92.5L187.75 91.5L187 91.5ZM187 95.5L186.25 95.5L186.25 96.5L187 96.5L187.75 96.5L187.75 95.5L187 95.5ZM187 99.5L186.25 99.5L186.25 100.5L187 100.5L187.75 100.5L187.75 99.5L187 99.5ZM187 103.5L186.25 103.5L186.25 104.5L187 104.5L187.75 104.5L187.75 103.5L187 103.5ZM187 107.5L186.25 107.5L186.25 108.5L187 108.5L187.75 108.5L187.75 107.5L187 107.5ZM187 111.5L186.25 111.5L186.25 112.5L187 112.5L187.75 112.5L187.75 111.5L187 111.5ZM187 115.5L186.25 115.5L186.25 116.5L187 116.5L187.75 116.5L187.75 115.5L187 115.5ZM187 119.5L186.25 119.5L186.25 120.5L187 120.5L187.75 120.5L187.75 119.5L187 119.5ZM187 123.5L186.25 123.5L186.25 124L187 124L187.75 124L187.75 123.5L187 123.5Z" fill="url(#paint1_linear_1386_12302)"/>
<path d="M163 148.75C163.414 148.75 163.75 148.414 163.75 148C163.75 147.586 163.414 147.25 163 147.25V148V148.75ZM130.516 148.75C130.93 148.75 131.266 148.414 131.266 148C131.266 147.586 130.93 147.25 130.516 147.25V148V148.75ZM133.609 147.25C133.195 147.25 132.859 147.586 132.859 148C132.859 148.414 133.195 148.75 133.609 148.75V148V147.25ZM134.641 148.75C135.055 148.75 135.391 148.414 135.391 148C135.391 147.586 135.055 147.25 134.641 147.25V148V148.75ZM137.734 147.25C137.32 147.25 136.984 147.586 136.984 148C136.984 148.414 137.32 148.75 137.734 148.75V148V147.25ZM138.766 148.75C139.18 148.75 139.516 148.414 139.516 148C139.516 147.586 139.18 147.25 138.766 147.25V148V148.75ZM141.859 147.25C141.445 147.25 141.109 147.586 141.109 148C141.109 148.414 141.445 148.75 141.859 148.75V148V147.25ZM142.891 148.75C143.305 148.75 143.641 148.414 143.641 148C143.641 147.586 143.305 147.25 142.891 147.25V148V148.75ZM145.984 147.25C145.57 147.25 145.234 147.586 145.234 148C145.234 148.414 145.57 148.75 145.984 148.75V148V147.25ZM147.016 148.75C147.43 148.75 147.766 148.414 147.766 148C147.766 147.586 147.43 147.25 147.016 147.25V148V148.75ZM150.109 147.25C149.695 147.25 149.359 147.586 149.359 148C149.359 148.414 149.695 148.75 150.109 148.75V148V147.25ZM151.141 148.75C151.555 148.75 151.891 148.414 151.891 148C151.891 147.586 151.555 147.25 151.141 147.25V148V148.75ZM154.234 147.25C153.82 147.25 153.484 147.586 153.484 148C153.484 148.414 153.82 148.75 154.234 148.75V148V147.25ZM155.266 148.75C155.68 148.75 156.016 148.414 156.016 148C156.016 147.586 155.68 147.25 155.266 147.25V148V148.75ZM158.359 147.25C157.945 147.25 157.609 147.586 157.609 148C157.609 148.414 157.945 148.75 158.359 148.75V148V147.25ZM159.391 148.75C159.805 148.75 160.141 148.414 160.141 148C160.141 147.586 159.805 147.25 159.391 147.25V148V148.75ZM162.484 147.25C162.07 147.25 161.734 147.586 161.734 148C161.734 148.414 162.07 148.75 162.484 148.75V148V147.25ZM130 148V148.75H130.516V148V147.25H130V148ZM133.609 148V148.75H134.641V148V147.25H133.609V148ZM137.734 148V148.75H138.766V148V147.25H137.734V148ZM141.859 148V148.75H142.891V148V147.25H141.859V148ZM145.984 148V148.75H147.016V148V147.25H145.984V148ZM150.109 148V148.75H151.141V148V147.25H150.109V148ZM154.234 148V148.75H155.266V148V147.25H154.234V148ZM158.359 148V148.75H159.391V148V147.25H158.359V148ZM162.484 148V148.75H163V148V147.25H162.484V148Z" fill="url(#paint2_linear_1386_12302)"/>
<path d="M67 108C76.9395 108 105.285 108 126.01 108C137.056 108 146 116.954 146 128V133C146 141.284 152.716 148 161 148V148" stroke="url(#paint3_linear_1386_12302)" stroke-width="1.5" stroke-linejoin="round" stroke-dasharray="1 3"/>
<path d="M305.5 106C295.577 106 267.559 106 246.989 106C235.944 106 227 114.954 227 126V127V134C227 141.732 220.732 148 213 148V148" stroke="url(#paint4_linear_1386_12302)" stroke-width="1.5" stroke-linejoin="round" stroke-dasharray="1 3"/>
<path d="M107 188C109.639 188 117.812 188 126 188C137.046 188 146 179.046 146 168C146 166.345 146 164.69 146 163.001C146 154.717 152.716 148 161 148V148" stroke="url(#paint5_linear_1386_12302)" stroke-width="1.5" stroke-linejoin="round" stroke-dasharray="1 3"/>
<path d="M271 188H247C235.954 188 227 179.046 227 168V162C227 154.268 220.732 148 213 148V148" stroke="url(#paint6_linear_1386_12302)" stroke-width="1.5" stroke-linejoin="round" stroke-dasharray="1 3"/>
<circle cx="187" cy="148" r="24" fill="url(#paint7_linear_1386_12302)"/>
<path fill-rule="evenodd" clip-rule="evenodd" d="M185.482 140.786C185.669 139.498 186.085 137.845 186.729 135.827L187 134.992L187.272 135.827C187.916 137.845 188.332 139.498 188.519 140.786C188.663 141.73 188.663 142.93 188.519 144.386C188.375 145.848 188.375 147.058 188.519 148.014C188.732 149.414 189.372 150.577 190.441 151.502C191.529 152.445 192.788 152.917 194.219 152.917C195.807 152.917 197.163 152.358 198.288 151.239C199.407 150.12 199.972 148.77 199.985 147.189C199.991 145.789 200.135 144.245 200.416 142.558C200.554 141.714 200.694 141.008 200.838 140.439L201.025 139.67L201.363 140.383C202.332 142.433 202.838 144.595 202.882 146.87V147.189C202.882 149.345 202.466 151.405 201.635 153.367C200.829 155.273 199.694 156.958 198.232 158.42C196.763 159.883 195.079 161.017 193.179 161.823C191.216 162.655 189.157 163.07 187 163.07C184.844 163.07 182.785 162.655 180.822 161.823C178.922 161.017 177.238 159.883 175.769 158.42C174.307 156.958 173.172 155.273 172.366 153.367C171.535 151.405 171.119 149.345 171.119 147.189V146.87C171.163 144.595 171.669 142.433 172.638 140.383L172.975 139.67L173.163 140.439C173.307 141.008 173.447 141.714 173.585 142.558C173.866 144.245 174.01 145.789 174.016 147.189C174.029 148.77 174.594 150.12 175.713 151.239C176.838 152.358 178.194 152.917 179.782 152.917C181.213 152.917 182.472 152.445 183.56 151.502C184.629 150.577 185.269 149.414 185.482 148.014C185.625 147.058 185.625 145.848 185.482 144.386C185.338 142.93 185.338 141.73 185.482 140.786ZM187 160.173C189.194 160.173 191.25 159.655 193.169 158.617C194.529 157.885 195.71 156.953 196.712 155.821C196.837 155.679 196.689 155.464 196.507 155.514C195.769 155.714 195.006 155.814 194.219 155.814C192.657 155.814 191.204 155.42 189.86 154.633C188.774 154 187.874 153.178 187.161 152.168C187.083 152.058 186.918 152.058 186.84 152.168C186.126 153.178 185.227 154 184.141 154.633C182.797 155.42 181.344 155.814 179.782 155.814C178.994 155.814 178.232 155.714 177.494 155.514C177.311 155.464 177.164 155.679 177.289 155.821C178.291 156.953 179.472 157.885 180.832 158.617C182.75 159.655 184.807 160.173 187 160.173Z" fill="white"/>
<rect x="73" y="52" width="228" height="32" rx="8" fill="white" fill-opacity="0.1"/>
<rect x="73.5" y="52.5" width="227" height="31" rx="7.5" stroke="black" stroke-opacity="0.1"/>
<rect x="79" y="56" width="24" height="24" rx="8" fill="white"/>
<path d="M99.2471 66.2764C99.684 64.9825 99.5335 63.5652 98.8349 62.3884C97.7843 60.5834 95.6722 59.6547 93.6094 60.0917C92.6918 59.0716 91.3734 58.4915 89.9912 58.4998C87.8827 58.4951 86.0119 59.8346 85.3632 61.8142C84.0087 62.088 82.8395 62.9246 82.1553 64.1103C81.0968 65.9106 81.3381 68.18 82.7522 69.7237C82.3154 71.0175 82.4658 72.4349 83.1644 73.6117C84.2151 75.4167 86.3272 76.3454 88.3899 75.9084C89.307 76.9285 90.626 77.5086 92.0082 77.4997C94.1179 77.505 95.9893 76.1643 96.638 74.1829C97.9925 73.9092 99.1617 73.0726 99.8458 71.8868C100.903 70.0865 100.661 67.8189 99.2477 66.2752L99.2471 66.2764ZM92.0094 76.2581C91.1651 76.2593 90.3474 75.9678 89.6993 75.434C89.7288 75.4185 89.7799 75.3906 89.813 75.3704L93.6473 73.1854C93.8435 73.0755 93.9638 72.8695 93.9626 72.6468V67.3131L95.5831 68.2364C95.6006 68.2447 95.612 68.2613 95.6144 68.2803V72.6973C95.612 74.6615 93.9999 76.2539 92.0094 76.2581ZM84.2566 72.9906C83.8336 72.2698 83.6813 71.4249 83.8263 70.6049C83.8546 70.6215 83.9046 70.6518 83.9401 70.672L87.7743 72.857C87.9687 72.9692 88.2094 72.9692 88.4044 72.857L93.0853 70.1898V72.0364C93.0865 72.0554 93.0775 72.0739 93.0624 72.0857L89.1866 74.2939C87.4602 75.2748 85.2555 74.6918 84.2572 72.9906H84.2566ZM83.2475 64.732C83.6687 64.01 84.3336 63.4578 85.1255 63.171C85.1255 63.2036 85.1237 63.2612 85.1237 63.3016V67.6723C85.1225 67.8944 85.2428 68.1004 85.4384 68.2102L90.1193 70.8768L88.4988 71.8001C88.4826 71.8108 88.4621 71.8126 88.4441 71.8049L84.5677 69.5949C82.8449 68.6104 82.254 66.4355 83.2469 64.7326L83.2475 64.732ZM96.5615 67.7893L91.8806 65.1221L93.5011 64.1994C93.5173 64.1887 93.5378 64.1869 93.5559 64.1946L97.4323 66.4028C99.1581 67.3867 99.7496 69.5652 98.7525 71.2681C98.3307 71.9889 97.6663 72.5411 96.8751 72.8285V68.3272C96.8769 68.1051 96.7571 67.8997 96.5621 67.7893H96.5615ZM98.1742 65.394C98.1459 65.3768 98.096 65.3471 98.0605 65.3269L94.2262 63.1419C94.0318 63.0297 93.7911 63.0297 93.5962 63.1419L88.9152 65.8091V63.9625C88.914 63.9435 88.9231 63.9251 88.9381 63.9132L92.8139 61.7068C94.5403 60.7241 96.7475 61.3089 97.7428 63.013C98.1634 63.7327 98.3156 64.5752 98.173 65.394H98.1742ZM88.0343 68.6852L86.4132 67.7619C86.3958 67.7536 86.3843 67.737 86.3819 67.718V63.301C86.3831 61.3345 88 59.7408 89.993 59.742C90.836 59.742 91.652 60.0341 92.3 60.5661C92.2705 60.5816 92.22 60.6095 92.1863 60.6297L88.352 62.8147C88.1558 62.9246 88.0355 63.13 88.0367 63.3527L88.0343 68.6841V68.6852ZM88.9146 66.8125L90.9997 65.6244L93.0847 66.8119V69.1876L90.9997 70.3751L88.9146 69.1876V66.8125Z" fill="black"/>
<rect x="111" y="56" width="24" height="24" rx="8" fill="white"/>
<path d="M117.228 71.1314L120.965 69.0358L121.028 68.8532L120.965 68.7522H120.783L120.157 68.7138L118.022 68.6561L116.17 68.5792L114.375 68.4831L113.923 68.3869L113.5 67.8294L113.543 67.5506L113.923 67.2959L114.467 67.3439L115.669 67.4256L117.473 67.5506L118.782 67.6275L120.72 67.8294H121.028L121.071 67.7044L120.965 67.6275L120.884 67.5506L119.017 66.2865L116.997 64.9503L115.939 64.1813L115.366 63.7919L115.078 63.4266L114.953 62.6288L115.472 62.0568L116.17 62.1049L116.348 62.1529L117.055 62.6961L118.565 63.864L120.537 65.3156L120.826 65.5559L120.941 65.4742L120.956 65.4165L120.826 65.2002L119.753 63.2632L118.608 61.2926L118.098 60.4755L117.964 59.9852C117.916 59.7833 117.882 59.6151 117.882 59.4084L118.474 58.6057L118.801 58.5L119.59 58.6057L119.922 58.8941L120.412 60.014L121.206 61.778L122.437 64.1764L122.798 64.8878L122.99 65.5463L123.063 65.7482H123.188V65.6328L123.289 64.2822L123.476 62.624L123.659 60.4899L123.722 59.8891L124.02 59.1681L124.611 58.7788L125.073 58.9999L125.453 59.543L125.4 59.8939L125.174 61.3599L124.732 63.6573L124.443 65.1954H124.611L124.804 65.0032L125.583 63.9698L126.891 62.3356L127.469 61.6867L128.142 60.9705L128.575 60.6293H129.393L129.994 61.5233L129.725 62.4461L128.883 63.5132L128.185 64.4168L127.185 65.7626L126.559 66.8392L126.617 66.9258L126.766 66.9113L129.027 66.4307L130.249 66.2096L131.706 65.9597L132.365 66.2673L132.437 66.5797L132.178 67.2189L130.619 67.6035L128.791 67.9688L126.069 68.6128L126.035 68.6369L126.074 68.6849L127.3 68.8003L127.825 68.8291H129.109L131.499 69.007L132.125 69.4203L132.5 69.925L132.437 70.3095L131.475 70.7998L130.177 70.4922L127.146 69.7712L126.107 69.5116H125.963V69.5982L126.829 70.4441L128.416 71.8764L130.403 73.7221L130.504 74.1787L130.249 74.5392L129.979 74.5008L128.233 73.1886L127.56 72.5974L126.035 71.3141H125.934V71.4486L126.285 71.9629L128.142 74.7507L128.238 75.6062L128.104 75.885L127.623 76.0532L127.093 75.9571L126.006 74.4335L124.886 72.7176L123.981 71.1795L123.871 71.242L123.337 76.9857L123.087 77.2789L122.509 77.5L122.028 77.1347L121.773 76.5435L122.028 75.3755L122.336 73.8519L122.586 72.6407L122.812 71.1362L122.947 70.6364L122.937 70.6027L122.827 70.6171L121.692 72.1744L119.965 74.5056L118.599 75.9667L118.272 76.0965L117.704 75.8033L117.757 75.2794L118.074 74.8132L119.965 72.4099L121.105 70.9199L121.841 70.0596L121.836 69.9346H121.793L116.771 73.1934L115.876 73.3088L115.491 72.9483L115.539 72.3571L115.722 72.1648L117.233 71.1266L117.228 71.1314Z" fill="#D97757"/>
<rect x="143" y="56" width="24" height="24" rx="8" fill="white"/>
<path d="M162.442 66.994C161.007 66.3831 159.702 65.5033 158.598 64.402C157.061 62.8614 155.964 60.9372 155.421 58.8294C155.398 58.7358 155.343 58.6527 155.267 58.5934C155.191 58.5341 155.097 58.502 155 58.502C154.904 58.502 154.81 58.5341 154.734 58.5934C154.657 58.6527 154.603 58.7358 154.579 58.8294C154.036 60.937 152.939 62.8609 151.402 64.402C150.298 65.5032 148.993 66.383 147.558 66.994C146.997 67.2358 146.42 67.4301 145.829 67.5795C145.735 67.6027 145.651 67.6568 145.591 67.7331C145.532 67.8094 145.499 67.9036 145.499 68.0006C145.499 68.0976 145.532 68.1918 145.591 68.2681C145.651 68.3445 145.735 68.3985 145.829 68.4217C146.42 68.5702 146.995 68.7645 147.558 69.0064C148.993 69.6172 150.298 70.497 151.402 71.5984C152.94 73.1391 154.037 75.0636 154.579 77.1718C154.602 77.266 154.657 77.3497 154.733 77.4096C154.809 77.4694 154.903 77.502 155 77.502C155.097 77.502 155.192 77.4694 155.268 77.4096C155.344 77.3497 155.398 77.266 155.421 77.1718C155.57 76.5802 155.764 76.005 156.006 75.4418C156.617 74.007 157.497 72.7024 158.598 71.5984C160.139 70.0608 162.063 68.9639 164.172 68.4217C164.265 68.3979 164.348 68.3435 164.408 68.2673C164.467 68.191 164.499 68.0972 164.499 68.0006C164.499 67.904 164.467 67.8102 164.408 67.7339C164.348 67.6577 164.265 67.6033 164.172 67.5795C163.58 67.4308 163.002 67.235 162.442 66.994Z" fill="#3186FF"/>
<path d="M162.442 66.994C161.007 66.3831 159.702 65.5033 158.598 64.402C157.061 62.8614 155.964 60.9372 155.421 58.8294C155.398 58.7358 155.343 58.6527 155.267 58.5934C155.191 58.5341 155.097 58.502 155 58.502C154.904 58.502 154.81 58.5341 154.734 58.5934C154.657 58.6527 154.603 58.7358 154.579 58.8294C154.036 60.937 152.939 62.8609 151.402 64.402C150.298 65.5032 148.993 66.383 147.558 66.994C146.997 67.2358 146.42 67.4301 145.829 67.5795C145.735 67.6027 145.651 67.6568 145.591 67.7331C145.532 67.8094 145.499 67.9036 145.499 68.0006C145.499 68.0976 145.532 68.1918 145.591 68.2681C145.651 68.3445 145.735 68.3985 145.829 68.4217C146.42 68.5702 146.995 68.7645 147.558 69.0064C148.993 69.6172 150.298 70.497 151.402 71.5984C152.94 73.1391 154.037 75.0636 154.579 77.1718C154.602 77.266 154.657 77.3497 154.733 77.4096C154.809 77.4694 154.903 77.502 155 77.502C155.097 77.502 155.192 77.4694 155.268 77.4096C155.344 77.3497 155.398 77.266 155.421 77.1718C155.57 76.5802 155.764 76.005 156.006 75.4418C156.617 74.007 157.497 72.7024 158.598 71.5984C160.139 70.0608 162.063 68.9639 164.172 68.4217C164.265 68.3979 164.348 68.3435 164.408 68.2673C164.467 68.191 164.499 68.0972 164.499 68.0006C164.499 67.904 164.467 67.8102 164.408 67.7339C164.348 67.6577 164.265 67.6033 164.172 67.5795C163.58 67.4308 163.002 67.235 162.442 66.994Z" fill="url(#paint8_linear_1386_12302)"/>
<path d="M162.442 66.994C161.007 66.3831 159.702 65.5033 158.598 64.402C157.061 62.8614 155.964 60.9372 155.421 58.8294C155.398 58.7358 155.343 58.6527 155.267 58.5934C155.191 58.5341 155.097 58.502 155 58.502C154.904 58.502 154.81 58.5341 154.734 58.5934C154.657 58.6527 154.603 58.7358 154.579 58.8294C154.036 60.937 152.939 62.8609 151.402 64.402C150.298 65.5032 148.993 66.383 147.558 66.994C146.997 67.2358 146.42 67.4301 145.829 67.5795C145.735 67.6027 145.651 67.6568 145.591 67.7331C145.532 67.8094 145.499 67.9036 145.499 68.0006C145.499 68.0976 145.532 68.1918 145.591 68.2681C145.651 68.3445 145.735 68.3985 145.829 68.4217C146.42 68.5702 146.995 68.7645 147.558 69.0064C148.993 69.6172 150.298 70.497 151.402 71.5984C152.94 73.1391 154.037 75.0636 154.579 77.1718C154.602 77.266 154.657 77.3497 154.733 77.4096C154.809 77.4694 154.903 77.502 155 77.502C155.097 77.502 155.192 77.4694 155.268 77.4096C155.344 77.3497 155.398 77.266 155.421 77.1718C155.57 76.5802 155.764 76.005 156.006 75.4418C156.617 74.007 157.497 72.7024 158.598 71.5984C160.139 70.0608 162.063 68.9639 164.172 68.4217C164.265 68.3979 164.348 68.3435 164.408 68.2673C164.467 68.191 164.499 68.0972 164.499 68.0006C164.499 67.904 164.467 67.8102 164.408 67.7339C164.348 67.6577 164.265 67.6033 164.172 67.5795C163.58 67.4308 163.002 67.235 162.442 66.994Z" fill="url(#paint9_linear_1386_12302)"/>
<path d="M162.442 66.994C161.007 66.3831 159.702 65.5033 158.598 64.402C157.061 62.8614 155.964 60.9372 155.421 58.8294C155.398 58.7358 155.343 58.6527 155.267 58.5934C155.191 58.5341 155.097 58.502 155 58.502C154.904 58.502 154.81 58.5341 154.734 58.5934C154.657 58.6527 154.603 58.7358 154.579 58.8294C154.036 60.937 152.939 62.8609 151.402 64.402C150.298 65.5032 148.993 66.383 147.558 66.994C146.997 67.2358 146.42 67.4301 145.829 67.5795C145.735 67.6027 145.651 67.6568 145.591 67.7331C145.532 67.8094 145.499 67.9036 145.499 68.0006C145.499 68.0976 145.532 68.1918 145.591 68.2681C145.651 68.3445 145.735 68.3985 145.829 68.4217C146.42 68.5702 146.995 68.7645 147.558 69.0064C148.993 69.6172 150.298 70.497 151.402 71.5984C152.94 73.1391 154.037 75.0636 154.579 77.1718C154.602 77.266 154.657 77.3497 154.733 77.4096C154.809 77.4694 154.903 77.502 155 77.502C155.097 77.502 155.192 77.4694 155.268 77.4096C155.344 77.3497 155.398 77.266 155.421 77.1718C155.57 76.5802 155.764 76.005 156.006 75.4418C156.617 74.007 157.497 72.7024 158.598 71.5984C160.139 70.0608 162.063 68.9639 164.172 68.4217C164.265 68.3979 164.348 68.3435 164.408 68.2673C164.467 68.191 164.499 68.0972 164.499 68.0006C164.499 67.904 164.467 67.8102 164.408 67.7339C164.348 67.6577 164.265 67.6033 164.172 67.5795C163.58 67.4308 163.002 67.235 162.442 66.994Z" fill="url(#paint10_linear_1386_12302)"/>
<rect x="175" y="56" width="24" height="24" rx="8" fill="white"/>
<path d="M197.28 61.3817C197.057 61.2724 196.961 61.4807 196.831 61.5866C196.787 61.6207 196.749 61.6651 196.712 61.706C196.386 62.0543 196.007 62.2831 195.51 62.2557C194.785 62.2148 194.165 62.4436 193.618 63.0001C193.501 62.3138 193.115 61.904 192.526 61.6412C192.218 61.5046 191.907 61.368 191.691 61.0709C191.541 60.8593 191.499 60.6237 191.424 60.3914C191.376 60.2515 191.328 60.108 191.168 60.0841C190.993 60.0569 190.925 60.2036 190.856 60.3266C190.582 60.8285 190.476 61.3817 190.486 61.9416C190.51 63.2016 191.041 64.2054 192.095 64.9191C192.215 65.001 192.246 65.0829 192.208 65.2025C192.136 65.4484 192.05 65.6874 191.975 65.9332C191.927 66.0903 191.855 66.1244 191.688 66.0561C191.109 65.8137 190.61 65.4552 190.168 65.0215C189.419 64.2942 188.741 63.4918 187.896 62.8635C187.697 62.7167 187.499 62.5802 187.293 62.4504C186.431 61.6104 187.406 60.9207 187.632 60.8388C187.868 60.7534 187.714 60.4597 186.951 60.4632C186.188 60.4666 185.49 60.7227 184.6 61.0641C184.47 61.1154 184.333 61.1529 184.193 61.1836C183.385 61.03 182.547 60.9958 181.671 61.0949C180.021 61.2792 178.704 62.0611 177.735 63.3962C176.572 65.001 176.298 66.8243 176.633 68.7263C176.986 70.7305 178.005 72.39 179.573 73.6876C181.198 75.0328 183.07 75.6919 185.206 75.5655C186.503 75.4904 187.947 75.3163 189.576 73.9334C189.987 74.1383 190.418 74.2202 191.133 74.2816C191.684 74.3329 192.215 74.2544 192.625 74.169C193.269 74.0324 193.224 73.4349 192.992 73.3256C191.106 72.4447 191.52 72.8032 191.144 72.513C192.102 71.376 193.546 70.1945 194.111 66.3668C194.155 66.0629 194.118 65.8717 194.111 65.6259C194.107 65.4756 194.141 65.4176 194.313 65.4005C194.785 65.3459 195.243 65.2162 195.664 64.984C196.886 64.3147 197.379 63.2153 197.495 61.8973C197.512 61.6958 197.492 61.4875 197.28 61.3817ZM186.633 73.2436C184.806 71.8028 183.919 71.3281 183.553 71.3486C183.211 71.3691 183.272 71.7618 183.348 72.0179C183.426 72.2705 183.529 72.4447 183.673 72.6666C183.772 72.8134 183.84 73.0319 183.574 73.1959C182.985 73.5612 181.962 73.0729 181.914 73.0491C180.723 72.3456 179.727 71.4168 179.025 70.1467C178.348 68.9243 177.954 67.6131 177.889 66.2132C177.872 65.8752 177.971 65.7556 178.307 65.6942C178.748 65.6123 179.203 65.5951 179.645 65.66C181.51 65.9332 183.098 66.7697 184.429 68.0946C185.189 68.8492 185.764 69.7506 186.356 70.6316C186.985 71.5671 187.663 72.4583 188.526 73.189C188.83 73.4451 189.073 73.6397 189.306 73.7832C188.604 73.8617 187.434 73.8788 186.633 73.2436ZM187.509 67.5926C187.509 67.4424 187.629 67.3229 187.779 67.3229C187.814 67.3229 187.844 67.3297 187.872 67.3399C187.91 67.3537 187.944 67.3742 187.971 67.4048C188.019 67.4527 188.046 67.5209 188.046 67.5926C188.046 67.7429 187.927 67.8624 187.776 67.8624C187.625 67.8624 187.509 67.7429 187.509 67.5926ZM190.23 68.9926C190.055 69.0643 189.881 69.1257 189.713 69.1326C189.453 69.1462 189.169 69.0404 189.015 68.9106C188.775 68.7091 188.604 68.5965 188.532 68.2448C188.502 68.0946 188.519 67.8624 188.546 67.7293C188.608 67.4424 188.539 67.2581 188.337 67.0907C188.173 66.9541 187.964 66.9166 187.735 66.9166C187.649 66.9166 187.571 66.879 187.513 66.8483C187.417 66.8005 187.338 66.681 187.413 66.5341C187.437 66.4864 187.554 66.3703 187.581 66.3498C187.892 66.1722 188.252 66.2303 188.584 66.3634C188.892 66.4898 189.124 66.722 189.46 67.0497C189.802 67.4458 189.864 67.5551 190.059 67.8521C190.213 68.0843 190.353 68.3233 190.449 68.5965C190.507 68.7673 190.432 68.9072 190.23 68.9926Z" fill="#4D6BFE"/>
<rect x="207" y="56" width="24" height="24" rx="8" fill="white"/>
<path fill-rule="evenodd" clip-rule="evenodd" d="M219.047 58.5C219.232 58.5 219.412 58.5996 219.51 58.7657L220.587 60.6474H225.365C225.55 60.6474 225.729 60.747 225.827 60.913L227.182 63.2708C227.28 63.4368 227.28 63.6471 227.182 63.8131L227.155 63.8574C227.133 63.8906 227.106 63.9238 227.073 63.9515L226.001 65.8222L228.374 69.9731L228.434 70.0616C228.504 70.2276 228.521 70.438 228.472 70.5874L227.226 72.7569C227.128 72.923 226.954 73.0226 226.763 73.0226L224.603 73.0336L222.22 77.2233C222.122 77.3893 221.947 77.4889 221.757 77.4889L219.058 77.5H219.02C218.846 77.4889 218.677 77.3893 218.59 77.2343L217.431 75.2142H212.713C212.675 75.2253 212.642 75.2253 212.604 75.2253C212.419 75.2253 212.24 75.1257 212.142 74.9597L210.896 72.7901C210.798 72.6296 210.798 72.4248 210.896 72.2533L211.968 70.3605L209.573 66.1764C209.476 66.0159 209.476 65.8111 209.573 65.6395L210.907 63.2708C210.994 63.1047 211.173 63.0051 211.369 63.0051C211.418 62.994 211.456 63.0051 211.494 63.0162H213.704L216.065 58.8653C216.076 58.8321 216.082 58.8044 216.098 58.7823L216.109 58.7657C216.207 58.5996 216.381 58.5 216.571 58.5H219.053H219.047ZM216.533 59.0756L213.97 63.5752H211.347L216.452 72.5023H213.85L212.594 74.7106H217.714L219.02 77.0019L224.124 68.0526L225.43 70.3328L227.949 70.3217L225.381 65.8222L226.676 63.553L216.501 63.5641L217.806 61.2839L216.539 59.0756H216.533ZM222.056 66.2815L219.004 71.6223L215.951 66.2815H222.056Z" fill="url(#paint11_linear_1386_12302)"/>
<g clip-path="url(#clip1_1386_12302)">
<rect x="239" y="56" width="24" height="24" fill="white"/>
<g clip-path="url(#clip2_1386_12302)">
<path d="M249.718 63.6345H247.217M249.718 72.3786H247.217M243.782 68.0102H249.724M249.326 74.5139H249.935C251.133 74.5139 252.105 73.5427 252.105 72.3448C252.105 71.1468 251.133 70.1757 249.935 70.1757M249.935 70.1757H245.087M249.935 70.1757C251.133 70.1757 252.105 69.2045 252.105 68.0065C252.105 66.9732 251.382 66.1086 250.414 65.8905C250.26 65.8558 250.1 65.8223 249.935 65.8223M249.326 61.4841H249.935C251.133 61.4841 252.105 62.4553 252.105 63.6532C252.105 64.8512 251.133 65.8223 249.935 65.8223M249.935 65.8223H245.087" stroke="#27272A" stroke-width="1.25" stroke-linecap="round" stroke-linejoin="round"/>
<path d="M252.086 64.2522C252.335 64.0538 252.636 63.9298 252.952 63.8943C253.268 63.8589 253.589 63.9134 253.875 64.0517C254.461 64.3338 254.833 64.9263 254.833 65.5761C254.833 65.2791 254.911 64.9872 255.06 64.73C255.208 64.4727 255.422 64.259 255.679 64.1105C255.936 63.962 256.228 63.8838 256.525 63.8838C256.822 63.8838 257.114 63.962 257.371 64.1105M252.078 68.3656C252.167 68.2861 252.264 68.2163 252.367 68.1573L252.367 68.1569C252.601 68.0231 252.863 67.9471 253.133 67.9353C253.402 67.9235 253.67 67.9762 253.915 68.089C254.16 68.2018 254.374 68.3714 254.54 68.5838C254.706 68.7962 254.819 69.0452 254.869 69.31C255.028 70.0606 255.669 70.6063 256.427 70.65L256.427 70.6519C256.585 70.6612 256.744 70.6483 256.898 70.6134" stroke="#27272A" stroke-width="1.25" stroke-linecap="round" stroke-linejoin="round"/>
<path d="M251.43 74.1931C251.399 74.1318 251.372 74.0687 251.349 74.0041M256.525 67.2685C257.21 67.2685 257.827 66.8562 258.089 66.2238C258.351 65.5914 258.206 64.8635 257.722 64.3795C257.47 64.1299 257.146 63.9658 256.795 63.9105C256.692 63.3796 256.475 62.8774 256.159 62.4384C255.843 61.9993 255.436 61.6339 254.965 61.3671C254.355 61.0214 253.661 60.8537 252.961 60.8829C252.26 60.9121 251.582 61.1372 251.003 61.5324C250.949 61.5707 250.897 61.6105 250.845 61.6516M254.575 72.9914C254.968 73.5918 255.696 73.8798 256.392 73.7103C257.089 73.5407 257.603 72.9505 257.676 72.237C257.742 71.5864 257.427 70.956 256.868 70.6178C257.697 70.4465 258.272 69.6885 258.213 68.8436C258.152 67.9566 257.414 67.2684 256.525 67.2685M251.436 74.2037C251.832 74.9728 252.743 75.3197 253.55 75.0082C254.357 74.6966 254.799 73.8268 254.575 72.9915" stroke="#27272A" stroke-width="1.25" stroke-linecap="round" stroke-linejoin="round"/>
</g>
</g>
<path d="M289 68C289 67.1716 289.672 66.5 290.5 66.5C291.328 66.5 292 67.1716 292 68C292 68.8284 291.328 69.5 290.5 69.5C289.672 69.5 289 68.8284 289 68ZM281.5 68C281.5 67.1716 282.172 66.5 283 66.5C283.828 66.5 284.5 67.1716 284.5 68C284.5 68.8284 283.828 69.5 283 69.5C282.172 69.5 281.5 68.8284 281.5 68ZM274 68C274 67.1716 274.672 66.5 275.5 66.5C276.328 66.5 277 67.1716 277 68C277 68.8284 276.328 69.5 275.5 69.5C274.672 69.5 274 68.8284 274 68Z" fill="#CCCCCC"/>
<defs>
<linearGradient id="paint0_linear_1386_12302" x1="243" y1="148.5" x2="211" y2="148.5" gradientUnits="userSpaceOnUse">
<stop stop-color="#CCCCCC"/>
<stop offset="1" stop-color="#F5F5F5"/>
</linearGradient>
<linearGradient id="paint1_linear_1386_12302" x1="187" y1="124" x2="187" y2="84" gradientUnits="userSpaceOnUse">
<stop stop-color="#F5F5F5"/>
<stop offset="1" stop-color="#CCCCCC"/>
</linearGradient>
<linearGradient id="paint2_linear_1386_12302" x1="163" y1="148.5" x2="130" y2="148.5" gradientUnits="userSpaceOnUse">
<stop stop-color="#F5F5F5"/>
<stop offset="1" stop-color="#CCCCCC"/>
</linearGradient>
<linearGradient id="paint3_linear_1386_12302" x1="161" y1="128" x2="130" y2="128" gradientUnits="userSpaceOnUse">
<stop stop-color="#F5F5F5"/>
<stop offset="1" stop-color="#CCCCCC"/>
</linearGradient>
<linearGradient id="paint4_linear_1386_12302" x1="243" y1="127" x2="213" y2="127" gradientUnits="userSpaceOnUse">
<stop stop-color="#CCCCCC"/>
<stop offset="1" stop-color="#F5F5F5"/>
</linearGradient>
<linearGradient id="paint5_linear_1386_12302" x1="161" y1="168" x2="131" y2="168" gradientUnits="userSpaceOnUse">
<stop stop-color="#F5F5F5"/>
<stop offset="1" stop-color="#CCCCCC"/>
</linearGradient>
<linearGradient id="paint6_linear_1386_12302" x1="243" y1="168" x2="213" y2="168" gradientUnits="userSpaceOnUse">
<stop stop-color="#CCCCCC"/>
<stop offset="1" stop-color="#F5F5F5"/>
</linearGradient>
<linearGradient id="paint7_linear_1386_12302" x1="187" y1="124" x2="187" y2="172" gradientUnits="userSpaceOnUse">
<stop stop-color="#2563EB"/>
<stop offset="1" stop-color="#0049DF"/>
</linearGradient>
<linearGradient id="paint8_linear_1386_12302" x1="150.681" y1="71.0231" x2="154.136" y2="68.0002" gradientUnits="userSpaceOnUse">
<stop stop-color="#08B962"/>
<stop offset="1" stop-color="#08B962" stop-opacity="0"/>
</linearGradient>
<linearGradient id="paint9_linear_1386_12302" x1="151.545" y1="62.3861" x2="154.568" y2="67.1365" gradientUnits="userSpaceOnUse">
<stop stop-color="#F94543"/>
<stop offset="1" stop-color="#F94543" stop-opacity="0"/>
</linearGradient>
<linearGradient id="paint10_linear_1386_12302" x1="147.658" y1="69.2957" x2="159.75" y2="68.0002" gradientUnits="userSpaceOnUse">
<stop stop-color="#FABC12"/>
<stop offset="0.46" stop-color="#FABC12" stop-opacity="0"/>
</linearGradient>
<linearGradient id="paint11_linear_1386_12302" x1="1667.18" y1="849.035" x2="557.316" y2="1303.12" gradientUnits="userSpaceOnUse">
<stop stop-color="#797BEB"/>
<stop offset="1" stop-color="#373080"/>
</linearGradient>
<clipPath id="clip0_1386_12302">
<rect width="12" height="12" fill="white" transform="translate(22 142)"/>
</clipPath>
<clipPath id="clip1_1386_12302">
<rect x="239" y="56" width="24" height="24" rx="8" fill="white"/>
</clipPath>
<clipPath id="clip2_1386_12302">
<rect width="16" height="16" fill="white" transform="translate(243 60)"/>
</clipPath>
</defs>
</svg>
